G04*
G04 #@! TF.GenerationSoftware,Altium Limited,Altium Designer,25.7.1 (20)*
G04*
G04 Layer_Color=16711935*
%FSLAX44Y44*%
%MOMM*%
G71*
G04*
G04 #@! TF.SameCoordinates,408BE53A-5F12-4F80-835E-9F71D952A7C0*
G04*
G04*
G04 #@! TF.FilePolarity,Negative*
G04*
G01*
G75*
%ADD49R,1.5500X1.5500*%
%ADD50C,1.5500*%
G04:AMPARAMS|DCode=51|XSize=2.6mm|YSize=4.7mm|CornerRadius=1.3mm|HoleSize=0mm|Usage=FLASHONLY|Rotation=180.000|XOffset=0mm|YOffset=0mm|HoleType=Round|Shape=RoundedRectangle|*
%AMROUNDEDRECTD51*
21,1,2.6000,2.1000,0,0,180.0*
21,1,0.0000,4.7000,0,0,180.0*
1,1,2.6000,0.0000,1.0500*
1,1,2.6000,0.0000,1.0500*
1,1,2.6000,0.0000,-1.0500*
1,1,2.6000,0.0000,-1.0500*
%
%ADD51ROUNDEDRECTD51*%
%ADD52C,2.3500*%
%ADD53C,0.1000*%
G04:AMPARAMS|DCode=54|XSize=1mm|YSize=1.8mm|CornerRadius=0.5mm|HoleSize=0mm|Usage=FLASHONLY|Rotation=180.000|XOffset=0mm|YOffset=0mm|HoleType=Round|Shape=RoundedRectangle|*
%AMROUNDEDRECTD54*
21,1,1.0000,0.8000,0,0,180.0*
21,1,0.0000,1.8000,0,0,180.0*
1,1,1.0000,0.0000,0.4000*
1,1,1.0000,0.0000,0.4000*
1,1,1.0000,0.0000,-0.4000*
1,1,1.0000,0.0000,-0.4000*
%
%ADD54ROUNDEDRECTD54*%
G04:AMPARAMS|DCode=55|XSize=1mm|YSize=2.1mm|CornerRadius=0.5mm|HoleSize=0mm|Usage=FLASHONLY|Rotation=180.000|XOffset=0mm|YOffset=0mm|HoleType=Round|Shape=RoundedRectangle|*
%AMROUNDEDRECTD55*
21,1,1.0000,1.1000,0,0,180.0*
21,1,0.0000,2.1000,0,0,180.0*
1,1,1.0000,0.0000,0.5500*
1,1,1.0000,0.0000,0.5500*
1,1,1.0000,0.0000,-0.5500*
1,1,1.0000,0.0000,-0.5500*
%
%ADD55ROUNDEDRECTD55*%
%ADD56C,0.6500*%
%ADD57C,0.5000*%
%ADD58C,1.3700*%
D49*
X-1403795Y305000D02*
D03*
D50*
X-1428795D02*
D03*
X-1453795D02*
D03*
X-1403795Y450000D02*
D03*
X-1453795D02*
D03*
D51*
X-1372795Y380000D02*
D03*
X-1484795D02*
D03*
D52*
X-1001458Y-139700D02*
D03*
X-938258Y-165100D02*
D03*
X-977645Y241300D02*
D03*
X-914445Y215900D02*
D03*
X-1215770Y241300D02*
D03*
X-1152570Y215900D02*
D03*
X-882400Y431800D02*
D03*
X-819200Y406400D02*
D03*
X1403600Y431800D02*
D03*
X1466800Y406400D02*
D03*
X1213100Y431800D02*
D03*
X1276300Y406400D02*
D03*
X1022600Y431800D02*
D03*
X1085800Y406400D02*
D03*
X832100Y431800D02*
D03*
X895300Y406400D02*
D03*
X641600Y431800D02*
D03*
X704800Y406400D02*
D03*
X451100Y431800D02*
D03*
X514300Y406400D02*
D03*
X260600Y431800D02*
D03*
X323800Y406400D02*
D03*
X70100Y431800D02*
D03*
X133300Y406400D02*
D03*
X-120400Y431800D02*
D03*
X-57200Y406400D02*
D03*
X-310900Y431800D02*
D03*
X-247700Y406400D02*
D03*
X-501400Y431800D02*
D03*
X-438200Y406400D02*
D03*
X-691900Y431800D02*
D03*
X-628700Y406400D02*
D03*
X-1168150Y431800D02*
D03*
X-1104950Y406400D02*
D03*
X-168020Y-139700D02*
D03*
X-104820Y-165100D02*
D03*
X-1263398Y-139700D02*
D03*
X-1200198Y-165100D02*
D03*
X-1453900Y241300D02*
D03*
X-1390700Y215900D02*
D03*
X189175Y-330200D02*
D03*
X252375Y-355600D02*
D03*
X22480Y-139700D02*
D03*
X85680Y-165100D02*
D03*
X212980Y-139700D02*
D03*
X276180Y-165100D02*
D03*
X-1390683Y-355600D02*
D03*
X-1453882Y-330200D02*
D03*
X-1200182Y-355600D02*
D03*
X-1263382Y-330200D02*
D03*
X-1009682Y-355600D02*
D03*
X-1072883Y-330200D02*
D03*
X-819183Y-355600D02*
D03*
X-882383Y-330200D02*
D03*
X-628683Y-355600D02*
D03*
X-691882Y-330200D02*
D03*
X-438185Y-355600D02*
D03*
X-501385Y-330200D02*
D03*
X966745Y-355600D02*
D03*
X903545Y-330200D02*
D03*
X1204865Y-355600D02*
D03*
X1141665Y-330200D02*
D03*
X1442988Y-355600D02*
D03*
X1379787Y-330200D02*
D03*
X-1390697Y-165100D02*
D03*
X-1453898Y-139700D02*
D03*
X-676320Y-165100D02*
D03*
X-739520Y-139700D02*
D03*
X-485820Y-165100D02*
D03*
X-549020Y-139700D02*
D03*
X-295320Y-165100D02*
D03*
X-358520Y-139700D02*
D03*
X466680Y-165100D02*
D03*
X403480Y-139700D02*
D03*
X657180Y-165100D02*
D03*
X593980Y-139700D02*
D03*
X847680Y-165100D02*
D03*
X784480Y-139700D02*
D03*
X1038177Y-165100D02*
D03*
X974977Y-139700D02*
D03*
X1347742Y-165100D02*
D03*
X1284543Y-139700D02*
D03*
X-1390700Y25400D02*
D03*
X-1453900Y50800D02*
D03*
X-1081143Y25400D02*
D03*
X-1144342Y50800D02*
D03*
X-771580Y25400D02*
D03*
X-834780Y50800D02*
D03*
X-581080Y25400D02*
D03*
X-644280Y50800D02*
D03*
X-390580Y25400D02*
D03*
X-453780Y50800D02*
D03*
X-200080Y25400D02*
D03*
X-263280Y50800D02*
D03*
X-9580Y25400D02*
D03*
X-72780Y50800D02*
D03*
X180920Y25400D02*
D03*
X117720Y50800D02*
D03*
X371420Y25400D02*
D03*
X308220Y50800D02*
D03*
X561920Y25400D02*
D03*
X498720Y50800D02*
D03*
X752420Y25400D02*
D03*
X689220Y50800D02*
D03*
X942920Y25400D02*
D03*
X879720Y50800D02*
D03*
X1133422Y25400D02*
D03*
X1070222Y50800D02*
D03*
X1395358Y25400D02*
D03*
X1332157Y50800D02*
D03*
X-723945Y215900D02*
D03*
X-787145Y241300D02*
D03*
X-533445Y215900D02*
D03*
X-596645Y241300D02*
D03*
X-342945Y215900D02*
D03*
X-406145Y241300D02*
D03*
X-152445Y215900D02*
D03*
X-215645Y241300D02*
D03*
X38055Y215900D02*
D03*
X-25145Y241300D02*
D03*
X228555Y215900D02*
D03*
X165355Y241300D02*
D03*
X419055Y215900D02*
D03*
X355855Y241300D02*
D03*
X609555Y215900D02*
D03*
X546355Y241300D02*
D03*
X800055Y215900D02*
D03*
X736855Y241300D02*
D03*
X990555Y215900D02*
D03*
X927355Y241300D02*
D03*
X1181050Y215900D02*
D03*
X1117850Y241300D02*
D03*
X1419180Y215900D02*
D03*
X1355980Y241300D02*
D03*
D53*
X-976357Y-190500D02*
D03*
X-1026357D02*
D03*
X-926357D02*
D03*
X-952545Y190500D02*
D03*
X-1002545D02*
D03*
X-902545D02*
D03*
X-1190670D02*
D03*
X-1240670D02*
D03*
X-1140670D02*
D03*
X-857300Y381000D02*
D03*
X-907300D02*
D03*
X-807300D02*
D03*
X1428700D02*
D03*
X1378700D02*
D03*
X1478700D02*
D03*
X1238200D02*
D03*
X1188200D02*
D03*
X1288200D02*
D03*
X1047700D02*
D03*
X997700D02*
D03*
X1097700D02*
D03*
X857200D02*
D03*
X807200D02*
D03*
X907200D02*
D03*
X666700D02*
D03*
X616700D02*
D03*
X716700D02*
D03*
X476200D02*
D03*
X426200D02*
D03*
X526200D02*
D03*
X285700D02*
D03*
X235700D02*
D03*
X335700D02*
D03*
X95200D02*
D03*
X45200D02*
D03*
X145200D02*
D03*
X-95300D02*
D03*
X-145300D02*
D03*
X-45300D02*
D03*
X-285800D02*
D03*
X-335800D02*
D03*
X-235800D02*
D03*
X-476300D02*
D03*
X-526300D02*
D03*
X-426300D02*
D03*
X-666800D02*
D03*
X-716800D02*
D03*
X-616800D02*
D03*
X-1143050D02*
D03*
X-1193050D02*
D03*
X-1093050D02*
D03*
X-142920Y-190500D02*
D03*
X-192920D02*
D03*
X-92920D02*
D03*
X-1238298D02*
D03*
X-1288297D02*
D03*
X-1188298D02*
D03*
X-1428800Y190500D02*
D03*
X-1478800D02*
D03*
X-1378800D02*
D03*
X214275Y-381000D02*
D03*
X164275D02*
D03*
X264275D02*
D03*
X47580Y-190500D02*
D03*
X-2420D02*
D03*
X97580D02*
D03*
X238080D02*
D03*
X188080D02*
D03*
X288080D02*
D03*
X-1378783Y-381000D02*
D03*
X-1478783D02*
D03*
X-1428783D02*
D03*
X-1188282D02*
D03*
X-1288282D02*
D03*
X-1238282D02*
D03*
X-997783D02*
D03*
X-1097783D02*
D03*
X-1047783D02*
D03*
X-807282D02*
D03*
X-907282D02*
D03*
X-857282D02*
D03*
X-616782D02*
D03*
X-716783D02*
D03*
X-666783D02*
D03*
X-426285D02*
D03*
X-526285D02*
D03*
X-476285D02*
D03*
X978645D02*
D03*
X878645D02*
D03*
X928645D02*
D03*
X1216765D02*
D03*
X1116765D02*
D03*
X1166765D02*
D03*
X1454888D02*
D03*
X1354888D02*
D03*
X1404888D02*
D03*
X-1378797Y-190500D02*
D03*
X-1478797D02*
D03*
X-1428797D02*
D03*
X-664420D02*
D03*
X-764420D02*
D03*
X-714420D02*
D03*
X-473920D02*
D03*
X-573920D02*
D03*
X-523920D02*
D03*
X-283420D02*
D03*
X-383420D02*
D03*
X-333420D02*
D03*
X478580D02*
D03*
X378580D02*
D03*
X428580D02*
D03*
X669080D02*
D03*
X569080D02*
D03*
X619080D02*
D03*
X859580D02*
D03*
X759580D02*
D03*
X809580D02*
D03*
X1050078D02*
D03*
X950078D02*
D03*
X1000078D02*
D03*
X1359642D02*
D03*
X1259642D02*
D03*
X1309642D02*
D03*
X-1378800Y0D02*
D03*
X-1478800D02*
D03*
X-1428800D02*
D03*
X-1069242D02*
D03*
X-1169242D02*
D03*
X-1119242D02*
D03*
X-759680D02*
D03*
X-859680D02*
D03*
X-809680D02*
D03*
X-569180D02*
D03*
X-669180D02*
D03*
X-619180D02*
D03*
X-378680D02*
D03*
X-478680D02*
D03*
X-428680D02*
D03*
X-188180D02*
D03*
X-288180D02*
D03*
X-238180D02*
D03*
X2320D02*
D03*
X-97680D02*
D03*
X-47680D02*
D03*
X192820D02*
D03*
X92820D02*
D03*
X142820D02*
D03*
X383320D02*
D03*
X283320D02*
D03*
X333320D02*
D03*
X573820D02*
D03*
X473820D02*
D03*
X523820D02*
D03*
X764320D02*
D03*
X664320D02*
D03*
X714320D02*
D03*
X954820D02*
D03*
X854820D02*
D03*
X904820D02*
D03*
X1145322D02*
D03*
X1045322D02*
D03*
X1095322D02*
D03*
X1407258D02*
D03*
X1307258D02*
D03*
X1357258D02*
D03*
X-712045Y190500D02*
D03*
X-812045D02*
D03*
X-762045D02*
D03*
X-521545D02*
D03*
X-621545D02*
D03*
X-571545D02*
D03*
X-331045D02*
D03*
X-431045D02*
D03*
X-381045D02*
D03*
X-140545D02*
D03*
X-240545D02*
D03*
X-190545D02*
D03*
X49955D02*
D03*
X-50045D02*
D03*
X-45D02*
D03*
X240455D02*
D03*
X140455D02*
D03*
X190455D02*
D03*
X430955D02*
D03*
X330955D02*
D03*
X380955D02*
D03*
X621455D02*
D03*
X521455D02*
D03*
X571455D02*
D03*
X811955D02*
D03*
X711955D02*
D03*
X761955D02*
D03*
X1002455D02*
D03*
X902455D02*
D03*
X952455D02*
D03*
X1192950D02*
D03*
X1092950D02*
D03*
X1142950D02*
D03*
X1431080D02*
D03*
X1331080D02*
D03*
X1381080D02*
D03*
X47500Y0D02*
D03*
X810000D02*
D03*
X-715000D02*
D03*
X-1262790Y298250D02*
D03*
Y450350D02*
D03*
X-1024030D02*
D03*
Y298250D02*
D03*
X-1238982Y-82750D02*
D03*
Y69350D02*
D03*
X-1000222D02*
D03*
Y-82750D02*
D03*
X1429020Y-272750D02*
D03*
Y-120650D02*
D03*
X1190260D02*
D03*
Y-272750D02*
D03*
X714280Y-463250D02*
D03*
Y-311150D02*
D03*
X-285720D02*
D03*
Y-463250D02*
D03*
D54*
X-908800Y455650D02*
D03*
X-995200D02*
D03*
D55*
X-908800Y413850D02*
D03*
X-995200D02*
D03*
D56*
X-923100Y418850D02*
D03*
X-980900D02*
D03*
D57*
X-89750Y-313250D02*
D03*
X-1414Y-374586D02*
D03*
X-23000Y-430000D02*
D03*
X-4000Y-396000D02*
D03*
X-117750Y-371250D02*
D03*
X132000Y-310000D02*
D03*
X109000Y-312000D02*
D03*
X-344250Y-356750D02*
D03*
X-221250Y-463000D02*
D03*
X-197000Y-447250D02*
D03*
X-45000Y-285000D02*
D03*
X-11828Y-282828D02*
D03*
X-41000Y-265000D02*
D03*
X-673000Y-446000D02*
D03*
X-672000Y-423000D02*
D03*
X-933000Y287000D02*
D03*
X-849000Y-422000D02*
D03*
X-1050000D02*
D03*
X171000Y-75000D02*
D03*
X-265000Y-339000D02*
D03*
X-211000Y-320000D02*
D03*
X-71540Y-272000D02*
D03*
X-50000Y-276000D02*
D03*
X-113000Y-291000D02*
D03*
X-161000Y-267000D02*
D03*
X-184000Y-274000D02*
D03*
X-146845Y-301960D02*
D03*
X1000Y-214000D02*
D03*
X42000Y-343000D02*
D03*
X26000Y-313000D02*
D03*
X-957000Y432000D02*
D03*
X-988730Y399270D02*
D03*
X-982000Y395000D02*
D03*
X-54000Y-470000D02*
D03*
X1163000Y-441000D02*
D03*
X927000Y-443000D02*
D03*
X227000Y-249000D02*
D03*
X196000Y-437000D02*
D03*
X39000Y-250000D02*
D03*
X39035Y-225035D02*
D03*
X16000Y-204000D02*
D03*
Y-178000D02*
D03*
X92000Y-270000D02*
D03*
X115000Y-209000D02*
D03*
X144000Y-277000D02*
D03*
X145000Y-294000D02*
D03*
X92504Y-242041D02*
D03*
X47000Y-224000D02*
D03*
X-10036Y-264965D02*
D03*
X201000Y-76000D02*
D03*
X350855Y112000D02*
D03*
X-481000Y-444000D02*
D03*
X-474000Y-423000D02*
D03*
X-193000Y-412000D02*
D03*
X-249000Y-434000D02*
D03*
X-862000Y-444000D02*
D03*
X-1056000D02*
D03*
X-1248000Y-442000D02*
D03*
X-1251000Y-422000D02*
D03*
X-1458000Y-442000D02*
D03*
X-1446000Y-416000D02*
D03*
X-676036Y-281035D02*
D03*
X-900000Y-80000D02*
D03*
X590000Y-269000D02*
D03*
X521000Y-262000D02*
D03*
X201000Y-260000D02*
D03*
X65830Y-256500D02*
D03*
X-78000Y-211000D02*
D03*
X-87000Y-219000D02*
D03*
X-225000Y-262000D02*
D03*
X-744000Y-269000D02*
D03*
X-831000Y-267000D02*
D03*
X304000Y-79000D02*
D03*
X-839000D02*
D03*
X267000Y113000D02*
D03*
X-791904Y112416D02*
D03*
X-902000Y112000D02*
D03*
X-859000Y287000D02*
D03*
X-912000Y266000D02*
D03*
X-1433000Y337000D02*
D03*
X-168000Y-434000D02*
D03*
X-257000Y-428000D02*
D03*
X-177000D02*
D03*
X-185000Y-420000D02*
D03*
X-201000Y-407000D02*
D03*
X-107000Y-379000D02*
D03*
X-497000Y-277000D02*
D03*
X-462000Y-272000D02*
D03*
X-70000Y-293000D02*
D03*
X-29107Y-269893D02*
D03*
X166000Y-208000D02*
D03*
X-21571Y-269429D02*
D03*
X173000Y-218000D02*
D03*
X84000Y-247000D02*
D03*
X114000Y-231000D02*
D03*
X149000Y-266000D02*
D03*
X-1000Y-273000D02*
D03*
X105000Y-237000D02*
D03*
X145000Y-285000D02*
D03*
X19000Y-276000D02*
D03*
X38000Y-295000D02*
D03*
X11000Y-405000D02*
D03*
X10000Y-382000D02*
D03*
X-1428000Y320000D02*
D03*
X-1388000Y301000D02*
D03*
X-1481000Y302000D02*
D03*
X-98000Y-291000D02*
D03*
X-104000Y-297000D02*
D03*
X-85000Y-400000D02*
D03*
X-78000Y-408000D02*
D03*
X-76000Y-436000D02*
D03*
X-37000Y-445000D02*
D03*
X-60000Y-453000D02*
D03*
X112000Y-444000D02*
D03*
X128000Y-428000D02*
D03*
X-991000Y288000D02*
D03*
X-1035000Y372000D02*
D03*
X-977000Y381000D02*
D03*
X-942000Y384000D02*
D03*
X-93000Y-469575D02*
D03*
X-808000Y454000D02*
D03*
X-1055000Y410000D02*
D03*
X-915000Y399000D02*
D03*
D58*
X-50000Y-339000D02*
D03*
X-29000D02*
D03*
X-50000Y-318000D02*
D03*
X-71000Y-339000D02*
D03*
X-50000Y-358000D02*
D03*
M02*
