G04*
G04 #@! TF.GenerationSoftware,Altium Limited,Altium Designer,25.7.1 (20)*
G04*
G04 Layer_Color=65535*
%FSLAX44Y44*%
%MOMM*%
G71*
G04*
G04 #@! TF.SameCoordinates,408BE53A-5F12-4F80-835E-9F71D952A7C0*
G04*
G04*
G04 #@! TF.FilePolarity,Positive*
G04*
G01*
G75*
%ADD10C,0.2000*%
%ADD11C,0.2500*%
%ADD12C,0.2540*%
%ADD13C,0.6000*%
%ADD14C,0.1270*%
D10*
X1246Y-325382D02*
G03*
X1246Y-325382I-1000J0D01*
G01*
X-72500Y-282061D02*
Y-261939D01*
X-89500Y-282061D02*
Y-261939D01*
X-106132Y-306061D02*
X-99061Y-313132D01*
X-96939Y-296868D02*
X-89868Y-303939D01*
X-97132Y-297061D02*
X-90061Y-304132D01*
X-87939Y-287868D02*
X-80868Y-294939D01*
X-129420Y-249300D02*
Y-248500D01*
X-156420D02*
X-129420D01*
X-156420Y-249300D02*
Y-248500D01*
X-129420Y-264500D02*
Y-263700D01*
X-156420Y-264500D02*
X-129420D01*
X-156420D02*
Y-263700D01*
X-99000Y-251291D02*
Y-226709D01*
X-77000Y-251291D02*
Y-226709D01*
X3000Y-251291D02*
Y-226709D01*
X-19000Y-251291D02*
Y-226709D01*
X-17132Y-278939D02*
X-10061Y-271868D01*
X-7939Y-288132D02*
X-868Y-281061D01*
X5868Y-317939D02*
X12939Y-310868D01*
X15061Y-327132D02*
X22132Y-320061D01*
X7959Y-329250D02*
X28041D01*
X7959Y-346750D02*
X28041D01*
X1061Y-367868D02*
X8132Y-374939D01*
X-8132Y-377061D02*
X-1061Y-384132D01*
X8061Y-385868D02*
X15132Y-392939D01*
X-1132Y-395061D02*
X5939Y-402132D01*
X-9939Y-377868D02*
X-2868Y-384939D01*
X-19132Y-387061D02*
X-12061Y-394132D01*
X119500Y-364061D02*
Y-343939D01*
X102500Y-364061D02*
Y-343939D01*
X101250Y-392800D02*
Y-371200D01*
X146750Y-392800D02*
Y-371200D01*
X101250Y-420800D02*
Y-399200D01*
X146750Y-420800D02*
Y-399200D01*
X104000Y-441500D02*
X114000D01*
X104000Y-428500D02*
X114000D01*
X-44041Y-450209D02*
X-19959D01*
X-44041Y-467791D02*
X-19959D01*
X-45041Y-468209D02*
X-20959D01*
X-45041Y-485791D02*
X-20959D01*
X-79500Y-480000D02*
X-66500D01*
X-79500Y-458000D02*
X-66500D01*
X-27939Y-444132D02*
X-20868Y-437061D01*
X-37132Y-434939D02*
X-30061Y-427868D01*
X-63349Y-434535D02*
X-43464Y-414651D01*
X-50535Y-447349D02*
X-30651Y-427464D01*
X-66939Y-408132D02*
X-59868Y-401061D01*
X-76132Y-398939D02*
X-69061Y-391868D01*
X-64535Y-433349D02*
X-44651Y-413465D01*
X-77349Y-420536D02*
X-57464Y-400651D01*
X-76939Y-398132D02*
X-69868Y-391061D01*
X-86132Y-388939D02*
X-79061Y-381868D01*
X-96939Y-380132D02*
X-89868Y-373061D01*
X-106132Y-370939D02*
X-99061Y-363868D01*
X-139041Y-301250D02*
X-118959D01*
X-139041Y-318750D02*
X-118959D01*
X-164750Y-296800D02*
Y-275200D01*
X-119250Y-296800D02*
Y-275200D01*
X-843250Y459750D02*
X-828750D01*
X-843250Y442250D02*
X-828750D01*
X-1000650Y468400D02*
Y482400D01*
Y428100D02*
Y442900D01*
Y482400D02*
X-903350D01*
Y468400D02*
Y482400D01*
Y428100D02*
Y442900D01*
X-918800Y319250D02*
X-897200D01*
X-918800Y364750D02*
X-897200D01*
X775450Y131700D02*
Y132500D01*
X748450D02*
X775450D01*
X748450Y131700D02*
Y132500D01*
X775450Y116500D02*
Y117300D01*
X748450Y116500D02*
X775450D01*
X748450D02*
Y117300D01*
X1442200Y322200D02*
Y323000D01*
X1415200D02*
X1442200D01*
X1415200Y322200D02*
Y323000D01*
X1442200Y307000D02*
Y307800D01*
X1415200Y307000D02*
X1442200D01*
X1415200D02*
Y307800D01*
X-1251800Y-264500D02*
Y-263700D01*
Y-264500D02*
X-1224800D01*
Y-263700D01*
X-1251800Y-249300D02*
Y-248500D01*
X-1224800D01*
Y-249300D02*
Y-248500D01*
X-1388500Y311500D02*
Y328500D01*
X-1371500Y311500D02*
Y328500D01*
X-1410148Y336750D02*
X-1397423D01*
X-1410148Y323250D02*
X-1397423D01*
X42000Y-415500D02*
Y-342500D01*
X94000Y-415500D02*
Y-342500D01*
X42000Y-415500D02*
X94000D01*
X42000Y-342500D02*
X94000D01*
X1391390Y-455000D02*
Y-454200D01*
Y-455000D02*
X1418390D01*
Y-454200D01*
X1391390Y-439800D02*
Y-439000D01*
X1418390D01*
Y-439800D02*
Y-439000D01*
X1153270Y-455000D02*
Y-454200D01*
Y-455000D02*
X1180270D01*
Y-454200D01*
X1153270Y-439800D02*
Y-439000D01*
X1180270D01*
Y-439800D02*
Y-439000D01*
X200780Y-455000D02*
Y-454200D01*
Y-455000D02*
X227780D01*
Y-454200D01*
X200780Y-439800D02*
Y-439000D01*
X227780D01*
Y-439800D02*
Y-439000D01*
X-489780Y-455000D02*
Y-454200D01*
Y-455000D02*
X-462780D01*
Y-454200D01*
X-489780Y-439800D02*
Y-439000D01*
X-462780D01*
Y-439800D02*
Y-439000D01*
X915150Y-455000D02*
Y-454200D01*
Y-455000D02*
X942150D01*
Y-454200D01*
X915150Y-439800D02*
Y-439000D01*
X942150D01*
Y-439800D02*
Y-439000D01*
X-996250Y330200D02*
Y351800D01*
X-1041750Y330200D02*
Y351800D01*
X-991525Y356525D02*
X-926475D01*
X-991525Y321475D02*
Y356525D01*
Y321475D02*
X-926475D01*
Y356525D01*
X-947000Y274500D02*
X-937000D01*
X-947000Y287500D02*
X-937000D01*
X-987061Y271939D02*
X-958939D01*
X-987061Y290061D02*
X-958939D01*
X-1029061Y358939D02*
X-1000939D01*
X-1029061Y377061D02*
X-1000939D01*
X-26250Y-201800D02*
Y-180200D01*
X-71750Y-201800D02*
Y-180200D01*
X-1043250Y401750D02*
X-1028750D01*
X-1043250Y384250D02*
X-1028750D01*
X-1421600Y366500D02*
X-1420800D01*
Y393500D01*
X-1421600D02*
X-1420800D01*
X-1436800Y366500D02*
X-1436000D01*
X-1436800D02*
Y393500D01*
X-1436000D01*
X-1481500Y311500D02*
Y328500D01*
X-1498500Y311500D02*
Y328500D01*
X-1466362Y323250D02*
X-1453638D01*
X-1466362Y336750D02*
X-1453638D01*
X-1156550Y307000D02*
Y307800D01*
Y307000D02*
X-1129550D01*
Y307800D01*
X-1156550Y322200D02*
Y323000D01*
X-1129550D01*
Y322200D02*
Y323000D01*
X-870800Y307000D02*
Y307800D01*
Y307000D02*
X-843800D01*
Y307800D01*
X-870800Y322200D02*
Y323000D01*
X-843800D01*
Y322200D02*
Y323000D01*
X-680300Y307000D02*
Y307800D01*
Y307000D02*
X-653300D01*
Y307800D01*
X-680300Y322200D02*
Y323000D01*
X-653300D01*
Y322200D02*
Y323000D01*
X-489800Y307000D02*
Y307800D01*
Y307000D02*
X-462800D01*
Y307800D01*
X-489800Y322200D02*
Y323000D01*
X-462800D01*
Y322200D02*
Y323000D01*
X-299300Y307000D02*
Y307800D01*
Y307000D02*
X-272300D01*
Y307800D01*
X-299300Y322200D02*
Y323000D01*
X-272300D01*
Y322200D02*
Y323000D01*
X-108800Y307000D02*
Y307800D01*
Y307000D02*
X-81800D01*
Y307800D01*
X-108800Y322200D02*
Y323000D01*
X-81800D01*
Y322200D02*
Y323000D01*
X81700Y307000D02*
Y307800D01*
Y307000D02*
X108700D01*
Y307800D01*
X81700Y322200D02*
Y323000D01*
X108700D01*
Y322200D02*
Y323000D01*
X272200Y307000D02*
Y307800D01*
Y307000D02*
X299200D01*
Y307800D01*
X272200Y322200D02*
Y323000D01*
X299200D01*
Y322200D02*
Y323000D01*
X462700Y307000D02*
Y307800D01*
Y307000D02*
X489700D01*
Y307800D01*
X462700Y322200D02*
Y323000D01*
X489700D01*
Y322200D02*
Y323000D01*
X653200Y307000D02*
Y307800D01*
Y307000D02*
X680200D01*
Y307800D01*
X653200Y322200D02*
Y323000D01*
X680200D01*
Y322200D02*
Y323000D01*
X843700Y307000D02*
Y307800D01*
Y307000D02*
X870700D01*
Y307800D01*
X843700Y322200D02*
Y323000D01*
X870700D01*
Y322200D02*
Y323000D01*
X1034200Y307000D02*
Y307800D01*
Y307000D02*
X1061200D01*
Y307800D01*
X1034200Y322200D02*
Y323000D01*
X1061200D01*
Y322200D02*
Y323000D01*
X1224700Y307000D02*
Y307800D01*
Y307000D02*
X1251700D01*
Y307800D01*
X1224700Y322200D02*
Y323000D01*
X1251700D01*
Y322200D02*
Y323000D01*
X-1442300Y116500D02*
Y117300D01*
Y116500D02*
X-1415300D01*
Y117300D01*
X-1442300Y131700D02*
Y132500D01*
X-1415300D01*
Y131700D02*
Y132500D01*
X-1204170Y116500D02*
Y117300D01*
Y116500D02*
X-1177170D01*
Y117300D01*
X-1204170Y131700D02*
Y132500D01*
X-1177170D01*
Y131700D02*
Y132500D01*
X-966050Y116500D02*
Y117300D01*
Y116500D02*
X-939050D01*
Y117300D01*
X-966050Y131700D02*
Y132500D01*
X-939050D01*
Y131700D02*
Y132500D01*
X-775550Y116500D02*
Y117300D01*
Y116500D02*
X-748550D01*
Y117300D01*
X-775550Y131700D02*
Y132500D01*
X-748550D01*
Y131700D02*
Y132500D01*
X-585050Y116500D02*
Y117300D01*
Y116500D02*
X-558050D01*
Y117300D01*
X-585050Y131700D02*
Y132500D01*
X-558050D01*
Y131700D02*
Y132500D01*
X-394550Y116500D02*
Y117300D01*
Y116500D02*
X-367550D01*
Y117300D01*
X-394550Y131700D02*
Y132500D01*
X-367550D01*
Y131700D02*
Y132500D01*
X-204050Y116500D02*
Y117300D01*
Y116500D02*
X-177050D01*
Y117300D01*
X-204050Y131700D02*
Y132500D01*
X-177050D01*
Y131700D02*
Y132500D01*
X-13550Y116500D02*
Y117300D01*
Y116500D02*
X13450D01*
Y117300D01*
X-13550Y131700D02*
Y132500D01*
X13450D01*
Y131700D02*
Y132500D01*
X176950Y116500D02*
Y117300D01*
Y116500D02*
X203950D01*
Y117300D01*
X176950Y131700D02*
Y132500D01*
X203950D01*
Y131700D02*
Y132500D01*
X367450Y116500D02*
Y117300D01*
Y116500D02*
X394450D01*
Y117300D01*
X367450Y131700D02*
Y132500D01*
X394450D01*
Y131700D02*
Y132500D01*
X557950Y116500D02*
Y117300D01*
Y116500D02*
X584950D01*
Y117300D01*
X557950Y131700D02*
Y132500D01*
X584950D01*
Y131700D02*
Y132500D01*
X938950Y116500D02*
Y117300D01*
Y116500D02*
X965950D01*
Y117300D01*
X938950Y131700D02*
Y132500D01*
X965950D01*
Y131700D02*
Y132500D01*
X1129450Y116500D02*
Y117300D01*
Y116500D02*
X1156450D01*
Y117300D01*
X1129450Y131700D02*
Y132500D01*
X1156450D01*
Y131700D02*
Y132500D01*
X1367580Y116500D02*
Y117300D01*
Y116500D02*
X1394580D01*
Y117300D01*
X1367580Y131700D02*
Y132500D01*
X1394580D01*
Y131700D02*
Y132500D01*
X-1442300Y-74000D02*
Y-73200D01*
Y-74000D02*
X-1415300D01*
Y-73200D01*
X-1442300Y-58800D02*
Y-58000D01*
X-1415300D01*
Y-58800D02*
Y-58000D01*
X-1132740Y-74000D02*
Y-73200D01*
Y-74000D02*
X-1105740D01*
Y-73200D01*
X-1132740Y-58800D02*
Y-58000D01*
X-1105740D01*
Y-58800D02*
Y-58000D01*
X-823180Y-74000D02*
Y-73200D01*
Y-74000D02*
X-796180D01*
Y-73200D01*
X-823180Y-58800D02*
Y-58000D01*
X-796180D01*
Y-58800D02*
Y-58000D01*
X-632680Y-74000D02*
Y-73200D01*
Y-74000D02*
X-605680D01*
Y-73200D01*
X-632680Y-58800D02*
Y-58000D01*
X-605680D01*
Y-58800D02*
Y-58000D01*
X-442180Y-74000D02*
Y-73200D01*
Y-74000D02*
X-415180D01*
Y-73200D01*
X-442180Y-58800D02*
Y-58000D01*
X-415180D01*
Y-58800D02*
Y-58000D01*
X-251680Y-74000D02*
Y-73200D01*
Y-74000D02*
X-224680D01*
Y-73200D01*
X-251680Y-58800D02*
Y-58000D01*
X-224680D01*
Y-58800D02*
Y-58000D01*
X-61180Y-74000D02*
Y-73200D01*
Y-74000D02*
X-34180D01*
Y-73200D01*
X-61180Y-58800D02*
Y-58000D01*
X-34180D01*
Y-58800D02*
Y-58000D01*
X129320Y-74000D02*
Y-73200D01*
Y-74000D02*
X156320D01*
Y-73200D01*
X129320Y-58800D02*
Y-58000D01*
X156320D01*
Y-58800D02*
Y-58000D01*
X319820Y-74000D02*
Y-73200D01*
Y-74000D02*
X346820D01*
Y-73200D01*
X319820Y-58800D02*
Y-58000D01*
X346820D01*
Y-58800D02*
Y-58000D01*
X510320Y-74000D02*
Y-73200D01*
Y-74000D02*
X537320D01*
Y-73200D01*
X510320Y-58800D02*
Y-58000D01*
X537320D01*
Y-58800D02*
Y-58000D01*
X700820Y-74000D02*
Y-73200D01*
Y-74000D02*
X727820D01*
Y-73200D01*
X700820Y-58800D02*
Y-58000D01*
X727820D01*
Y-58800D02*
Y-58000D01*
X891320Y-74000D02*
Y-73200D01*
Y-74000D02*
X918320D01*
Y-73200D01*
X891320Y-58800D02*
Y-58000D01*
X918320D01*
Y-58800D02*
Y-58000D01*
X1081820Y-74000D02*
Y-73200D01*
Y-74000D02*
X1108820D01*
Y-73200D01*
X1081820Y-58800D02*
Y-58000D01*
X1108820D01*
Y-58800D02*
Y-58000D01*
X1343760Y-74000D02*
Y-73200D01*
Y-74000D02*
X1370760D01*
Y-73200D01*
X1343760Y-58800D02*
Y-58000D01*
X1370760D01*
Y-58800D02*
Y-58000D01*
X-1442300Y-264500D02*
Y-263700D01*
Y-264500D02*
X-1415300D01*
Y-263700D01*
X-1442300Y-249300D02*
Y-248500D01*
X-1415300D01*
Y-249300D02*
Y-248500D01*
X-989860Y-264500D02*
Y-263700D01*
Y-264500D02*
X-962860D01*
Y-263700D01*
X-989860Y-249300D02*
Y-248500D01*
X-962860D01*
Y-249300D02*
Y-248500D01*
X-727920Y-264500D02*
Y-263700D01*
Y-264500D02*
X-700920D01*
Y-263700D01*
X-727920Y-249300D02*
Y-248500D01*
X-700920D01*
Y-249300D02*
Y-248500D01*
X-537420Y-264500D02*
Y-263700D01*
Y-264500D02*
X-510420D01*
Y-263700D01*
X-537420Y-249300D02*
Y-248500D01*
X-510420D01*
Y-249300D02*
Y-248500D01*
X-346920Y-264500D02*
Y-263700D01*
Y-264500D02*
X-319920D01*
Y-263700D01*
X-346920Y-249300D02*
Y-248500D01*
X-319920D01*
Y-249300D02*
Y-248500D01*
X34080Y-264500D02*
Y-263700D01*
Y-264500D02*
X61080D01*
Y-263700D01*
X34080Y-249300D02*
Y-248500D01*
X61080D01*
Y-249300D02*
Y-248500D01*
X224580Y-264500D02*
Y-263700D01*
Y-264500D02*
X251580D01*
Y-263700D01*
X224580Y-249300D02*
Y-248500D01*
X251580D01*
Y-249300D02*
Y-248500D01*
X415080Y-264500D02*
Y-263700D01*
Y-264500D02*
X442080D01*
Y-263700D01*
X415080Y-249300D02*
Y-248500D01*
X442080D01*
Y-249300D02*
Y-248500D01*
X605580Y-264500D02*
Y-263700D01*
Y-264500D02*
X632580D01*
Y-263700D01*
X605580Y-249300D02*
Y-248500D01*
X632580D01*
Y-249300D02*
Y-248500D01*
X796080Y-264500D02*
Y-263700D01*
Y-264500D02*
X823080D01*
Y-263700D01*
X796080Y-249300D02*
Y-248500D01*
X823080D01*
Y-249300D02*
Y-248500D01*
X986580Y-264500D02*
Y-263700D01*
Y-264500D02*
X1013580D01*
Y-263700D01*
X986580Y-249300D02*
Y-248500D01*
X1013580D01*
Y-249300D02*
Y-248500D01*
X1296140Y-264500D02*
Y-263700D01*
Y-264500D02*
X1323140D01*
Y-263700D01*
X1296140Y-249300D02*
Y-248500D01*
X1323140D01*
Y-249300D02*
Y-248500D01*
X-1442280Y-455000D02*
Y-454200D01*
Y-455000D02*
X-1415280D01*
Y-454200D01*
X-1442280Y-439800D02*
Y-439000D01*
X-1415280D01*
Y-439800D02*
Y-439000D01*
X-1251780Y-455000D02*
Y-454200D01*
Y-455000D02*
X-1224780D01*
Y-454200D01*
X-1251780Y-439800D02*
Y-439000D01*
X-1224780D01*
Y-439800D02*
Y-439000D01*
X-1061280Y-455000D02*
Y-454200D01*
Y-455000D02*
X-1034280D01*
Y-454200D01*
X-1061280Y-439800D02*
Y-439000D01*
X-1034280D01*
Y-439800D02*
Y-439000D01*
X-870780Y-455000D02*
Y-454200D01*
Y-455000D02*
X-843780D01*
Y-454200D01*
X-870780Y-439800D02*
Y-439000D01*
X-843780D01*
Y-439800D02*
Y-439000D01*
X-680280Y-455000D02*
Y-454200D01*
Y-455000D02*
X-653280D01*
Y-454200D01*
X-680280Y-439800D02*
Y-439000D01*
X-653280D01*
Y-439800D02*
Y-439000D01*
D11*
X-119059Y-265311D02*
G03*
X-119059Y-265311I-1250J0D01*
G01*
X-90750Y-464100D02*
G03*
X-90750Y-464100I-1250J0D01*
G01*
X-918100Y396850D02*
G03*
X-918100Y396850I-1250J0D01*
G01*
X785811Y115689D02*
G03*
X785811Y115689I-1250J0D01*
G01*
X1452561Y306189D02*
G03*
X1452561Y306189I-1250J0D01*
G01*
X-1214439Y-265311D02*
G03*
X-1214439Y-265311I-1250J0D01*
G01*
X96800Y-330250D02*
G03*
X96800Y-330250I-1250J0D01*
G01*
X1428751Y-455811D02*
G03*
X1428751Y-455811I-1250J0D01*
G01*
X1190631D02*
G03*
X1190631Y-455811I-1250J0D01*
G01*
X238141D02*
G03*
X238141Y-455811I-1250J0D01*
G01*
X-452419D02*
G03*
X-452419Y-455811I-1250J0D01*
G01*
X952511D02*
G03*
X952511Y-455811I-1250J0D01*
G01*
X-922750Y371950D02*
G03*
X-922750Y371950I-1250J0D01*
G01*
X-1418739Y402611D02*
G03*
X-1418739Y402611I-1250J0D01*
G01*
X-1119189Y306189D02*
G03*
X-1119189Y306189I-1250J0D01*
G01*
X-833439D02*
G03*
X-833439Y306189I-1250J0D01*
G01*
X-642939D02*
G03*
X-642939Y306189I-1250J0D01*
G01*
X-452439D02*
G03*
X-452439Y306189I-1250J0D01*
G01*
X-261939D02*
G03*
X-261939Y306189I-1250J0D01*
G01*
X-71439D02*
G03*
X-71439Y306189I-1250J0D01*
G01*
X119061D02*
G03*
X119061Y306189I-1250J0D01*
G01*
X309561D02*
G03*
X309561Y306189I-1250J0D01*
G01*
X500061D02*
G03*
X500061Y306189I-1250J0D01*
G01*
X690561D02*
G03*
X690561Y306189I-1250J0D01*
G01*
X881061D02*
G03*
X881061Y306189I-1250J0D01*
G01*
X1071561D02*
G03*
X1071561Y306189I-1250J0D01*
G01*
X1262061D02*
G03*
X1262061Y306189I-1250J0D01*
G01*
X-1404939Y115689D02*
G03*
X-1404939Y115689I-1250J0D01*
G01*
X-1166809D02*
G03*
X-1166809Y115689I-1250J0D01*
G01*
X-928689D02*
G03*
X-928689Y115689I-1250J0D01*
G01*
X-738189D02*
G03*
X-738189Y115689I-1250J0D01*
G01*
X-547689D02*
G03*
X-547689Y115689I-1250J0D01*
G01*
X-357189D02*
G03*
X-357189Y115689I-1250J0D01*
G01*
X-166689D02*
G03*
X-166689Y115689I-1250J0D01*
G01*
X23811D02*
G03*
X23811Y115689I-1250J0D01*
G01*
X214311D02*
G03*
X214311Y115689I-1250J0D01*
G01*
X404811D02*
G03*
X404811Y115689I-1250J0D01*
G01*
X595311D02*
G03*
X595311Y115689I-1250J0D01*
G01*
X976311D02*
G03*
X976311Y115689I-1250J0D01*
G01*
X1166811D02*
G03*
X1166811Y115689I-1250J0D01*
G01*
X1404941D02*
G03*
X1404941Y115689I-1250J0D01*
G01*
X-1404939Y-74811D02*
G03*
X-1404939Y-74811I-1250J0D01*
G01*
X-1095379D02*
G03*
X-1095379Y-74811I-1250J0D01*
G01*
X-785819D02*
G03*
X-785819Y-74811I-1250J0D01*
G01*
X-595319D02*
G03*
X-595319Y-74811I-1250J0D01*
G01*
X-404819D02*
G03*
X-404819Y-74811I-1250J0D01*
G01*
X-214319D02*
G03*
X-214319Y-74811I-1250J0D01*
G01*
X-23819D02*
G03*
X-23819Y-74811I-1250J0D01*
G01*
X166681D02*
G03*
X166681Y-74811I-1250J0D01*
G01*
X357181D02*
G03*
X357181Y-74811I-1250J0D01*
G01*
X547681D02*
G03*
X547681Y-74811I-1250J0D01*
G01*
X738181D02*
G03*
X738181Y-74811I-1250J0D01*
G01*
X928681D02*
G03*
X928681Y-74811I-1250J0D01*
G01*
X1119181D02*
G03*
X1119181Y-74811I-1250J0D01*
G01*
X1381121D02*
G03*
X1381121Y-74811I-1250J0D01*
G01*
X-1404939Y-265311D02*
G03*
X-1404939Y-265311I-1250J0D01*
G01*
X-952499D02*
G03*
X-952499Y-265311I-1250J0D01*
G01*
X-690559D02*
G03*
X-690559Y-265311I-1250J0D01*
G01*
X-500059D02*
G03*
X-500059Y-265311I-1250J0D01*
G01*
X-309559D02*
G03*
X-309559Y-265311I-1250J0D01*
G01*
X71441D02*
G03*
X71441Y-265311I-1250J0D01*
G01*
X261941D02*
G03*
X261941Y-265311I-1250J0D01*
G01*
X452441D02*
G03*
X452441Y-265311I-1250J0D01*
G01*
X642941D02*
G03*
X642941Y-265311I-1250J0D01*
G01*
X833441D02*
G03*
X833441Y-265311I-1250J0D01*
G01*
X1023941D02*
G03*
X1023941Y-265311I-1250J0D01*
G01*
X1333501D02*
G03*
X1333501Y-265311I-1250J0D01*
G01*
X-1404919Y-455811D02*
G03*
X-1404919Y-455811I-1250J0D01*
G01*
X-1214419D02*
G03*
X-1214419Y-455811I-1250J0D01*
G01*
X-1023919D02*
G03*
X-1023919Y-455811I-1250J0D01*
G01*
X-833419D02*
G03*
X-833419Y-455811I-1250J0D01*
G01*
X-642919D02*
G03*
X-642919Y-455811I-1250J0D01*
G01*
D12*
X50000Y-506000D02*
G03*
X50000Y-506000I-30000J0D01*
G01*
X30000Y486000D02*
G03*
X30000Y486000I-30000J0D01*
G01*
X1564000Y486250D02*
G03*
X1564000Y486250I-30000J0D01*
G01*
Y-506250D02*
G03*
X1564000Y-506250I-30000J0D01*
G01*
X-1504000D02*
G03*
X-1504000Y-506250I-30000J0D01*
G01*
X-1504500Y486000D02*
G03*
X-1504500Y486000I-30000J0D01*
G01*
X77500Y0D02*
G03*
X77500Y0I-30000J0D01*
G01*
X840000D02*
G03*
X840000Y0I-30000J0D01*
G01*
X-685000D02*
G03*
X-685000Y0I-30000J0D01*
G01*
X-17520Y-261670D02*
Y-208330D01*
X-78480D02*
X-17520D01*
X-78480Y-261670D02*
Y-208330D01*
Y-261670D02*
X-17520D01*
X-142157Y-334618D02*
Y-319382D01*
X-134539D01*
X-132000Y-321922D01*
Y-327000D01*
X-134539Y-329539D01*
X-142157D01*
X-137078D02*
X-132000Y-334618D01*
X-126922D02*
X-121843D01*
X-124382D01*
Y-319382D01*
X-126922Y-321922D01*
X-1266504Y-219609D02*
Y-234844D01*
X-1258886D01*
X-1256347Y-232305D01*
Y-222148D01*
X-1258886Y-219609D01*
X-1266504D01*
X-1241112D02*
X-1251269D01*
Y-227226D01*
X-1246191Y-224687D01*
X-1243651D01*
X-1241112Y-227226D01*
Y-232305D01*
X-1243651Y-234844D01*
X-1248730D01*
X-1251269Y-232305D01*
X-1236034Y-222148D02*
X-1233495Y-219609D01*
X-1228416D01*
X-1225877Y-222148D01*
Y-224687D01*
X-1228416Y-227226D01*
X-1225877Y-229766D01*
Y-232305D01*
X-1228416Y-234844D01*
X-1233495D01*
X-1236034Y-232305D01*
Y-229766D01*
X-1233495Y-227226D01*
X-1236034Y-224687D01*
Y-222148D01*
X-1233495Y-227226D02*
X-1228416D01*
X-38696Y-156383D02*
Y-169078D01*
X-36157Y-171618D01*
X-31078D01*
X-28539Y-169078D01*
Y-156383D01*
X-23461Y-158922D02*
X-20922Y-156383D01*
X-15843D01*
X-13304Y-158922D01*
Y-161461D01*
X-15843Y-164000D01*
X-18383D01*
X-15843D01*
X-13304Y-166539D01*
Y-169078D01*
X-15843Y-171618D01*
X-20922D01*
X-23461Y-169078D01*
X-61696Y-269382D02*
Y-282078D01*
X-59157Y-284618D01*
X-54078D01*
X-51539Y-282078D01*
Y-269382D01*
X-36304Y-284618D02*
X-46461D01*
X-36304Y-274461D01*
Y-271922D01*
X-38843Y-269382D01*
X-43922D01*
X-46461Y-271922D01*
X-990914Y401929D02*
Y389233D01*
X-988375Y386694D01*
X-983297D01*
X-980757Y389233D01*
Y401929D01*
X-975679Y386694D02*
X-970601D01*
X-973140D01*
Y401929D01*
X-975679Y399390D01*
X-1465894Y345292D02*
Y360527D01*
X-1458277D01*
X-1455737Y357988D01*
Y352910D01*
X-1458277Y350370D01*
X-1465894D01*
X-1460816D02*
X-1455737Y345292D01*
X-1450659D02*
X-1445581D01*
X-1448120D01*
Y360527D01*
X-1450659Y357988D01*
X-1437963D02*
X-1435424Y360527D01*
X-1430345D01*
X-1427806Y357988D01*
Y347831D01*
X-1430345Y345292D01*
X-1435424D01*
X-1437963Y347831D01*
Y357988D01*
X-1409506Y345292D02*
Y360527D01*
X-1401888D01*
X-1399349Y357988D01*
Y352910D01*
X-1401888Y350370D01*
X-1409506D01*
X-1404428D02*
X-1399349Y345292D01*
X-1394271Y347831D02*
X-1391732Y345292D01*
X-1386653D01*
X-1384114Y347831D01*
Y357988D01*
X-1386653Y360527D01*
X-1391732D01*
X-1394271Y357988D01*
Y355449D01*
X-1391732Y352910D01*
X-1384114D01*
X103304Y-337617D02*
Y-322383D01*
X110922D01*
X113461Y-324922D01*
Y-330000D01*
X110922Y-332539D01*
X103304D01*
X108383D02*
X113461Y-337617D01*
X118539Y-324922D02*
X121078Y-322383D01*
X126157D01*
X128696Y-324922D01*
Y-327461D01*
X126157Y-330000D01*
X128696Y-332539D01*
Y-335078D01*
X126157Y-337617D01*
X121078D01*
X118539Y-335078D01*
Y-332539D01*
X121078Y-330000D01*
X118539Y-327461D01*
Y-324922D01*
X121078Y-330000D02*
X126157D01*
X26652Y-324809D02*
Y-317191D01*
X30461D01*
X31730Y-318461D01*
Y-321000D01*
X30461Y-322270D01*
X26652D01*
X29191D02*
X31730Y-324809D01*
X34270Y-317191D02*
X39348D01*
Y-318461D01*
X34270Y-323539D01*
Y-324809D01*
X-1056446Y411332D02*
Y426567D01*
X-1048829D01*
X-1046289Y424028D01*
Y418950D01*
X-1048829Y416410D01*
X-1056446D01*
X-1051368D02*
X-1046289Y411332D01*
X-1031054Y426567D02*
X-1036133Y424028D01*
X-1041211Y418950D01*
Y413871D01*
X-1038672Y411332D01*
X-1033593D01*
X-1031054Y413871D01*
Y416410D01*
X-1033593Y418950D01*
X-1041211D01*
X-850696Y421382D02*
Y436618D01*
X-843078D01*
X-840539Y434078D01*
Y429000D01*
X-843078Y426461D01*
X-850696D01*
X-845618D02*
X-840539Y421382D01*
X-825304Y436618D02*
X-835461D01*
Y429000D01*
X-830383Y431539D01*
X-827843D01*
X-825304Y429000D01*
Y423922D01*
X-827843Y421382D01*
X-832922D01*
X-835461Y423922D01*
X49304Y-488618D02*
Y-473382D01*
X56922D01*
X59461Y-475922D01*
Y-481000D01*
X56922Y-483539D01*
X49304D01*
X54383D02*
X59461Y-488618D01*
X72157D02*
Y-473382D01*
X64539Y-481000D01*
X74696D01*
X-117696Y-279618D02*
Y-264382D01*
X-110078D01*
X-107539Y-266922D01*
Y-272000D01*
X-110078Y-274539D01*
X-117696D01*
X-112618D02*
X-107539Y-279618D01*
X-102461Y-266922D02*
X-99922Y-264382D01*
X-94843D01*
X-92304Y-266922D01*
Y-269461D01*
X-94843Y-272000D01*
X-97382D01*
X-94843D01*
X-92304Y-274539D01*
Y-277078D01*
X-94843Y-279618D01*
X-99922D01*
X-102461Y-277078D01*
X47304Y-467617D02*
Y-452383D01*
X54922D01*
X57461Y-454922D01*
Y-460000D01*
X54922Y-462539D01*
X47304D01*
X52382D02*
X57461Y-467617D01*
X72696D02*
X62539D01*
X72696Y-457461D01*
Y-454922D01*
X70157Y-452383D01*
X65078D01*
X62539Y-454922D01*
X160461Y-402383D02*
X155382D01*
X157922D01*
Y-415078D01*
X155382Y-417617D01*
X152843D01*
X150304Y-415078D01*
X165539Y-402383D02*
X175696D01*
Y-404922D01*
X165539Y-415078D01*
Y-417617D01*
X137461Y-350382D02*
X132382D01*
X134922D01*
Y-363078D01*
X132382Y-365617D01*
X129843D01*
X127304Y-363078D01*
X152696Y-350382D02*
X147618Y-352922D01*
X142539Y-358000D01*
Y-363078D01*
X145078Y-365617D01*
X150157D01*
X152696Y-363078D01*
Y-360539D01*
X150157Y-358000D01*
X142539D01*
X-185539Y-275382D02*
X-190618D01*
X-188078D01*
Y-288078D01*
X-190618Y-290618D01*
X-193157D01*
X-195696Y-288078D01*
X-170304Y-275382D02*
X-180461D01*
Y-283000D01*
X-175382Y-280461D01*
X-172843D01*
X-170304Y-283000D01*
Y-288078D01*
X-172843Y-290618D01*
X-177922D01*
X-180461Y-288078D01*
X-60007Y-155347D02*
X-65086D01*
X-62547D01*
Y-168043D01*
X-65086Y-170582D01*
X-67625D01*
X-70164Y-168043D01*
X-47311Y-170582D02*
Y-155347D01*
X-54929Y-162964D01*
X-44772D01*
X-955539Y459618D02*
X-960618D01*
X-958078D01*
Y446922D01*
X-960618Y444383D01*
X-963157D01*
X-965696Y446922D01*
X-950461Y457078D02*
X-947922Y459618D01*
X-942843D01*
X-940304Y457078D01*
Y454539D01*
X-942843Y452000D01*
X-945383D01*
X-942843D01*
X-940304Y449461D01*
Y446922D01*
X-942843Y444383D01*
X-947922D01*
X-950461Y446922D01*
X-1030033Y376529D02*
X-1035112D01*
X-1032572D01*
Y363833D01*
X-1035112Y361294D01*
X-1037651D01*
X-1040190Y363833D01*
X-1014798Y361294D02*
X-1024955D01*
X-1014798Y371451D01*
Y373990D01*
X-1017337Y376529D01*
X-1022416D01*
X-1024955Y373990D01*
X-896000Y318617D02*
X-901078D01*
X-898539D01*
Y305922D01*
X-901078Y303382D01*
X-903617D01*
X-906157Y305922D01*
X-890922Y303382D02*
X-885843D01*
X-888382D01*
Y318617D01*
X-890922Y316078D01*
X-1457004Y-410109D02*
Y-425344D01*
X-1449386D01*
X-1446847Y-422805D01*
Y-412648D01*
X-1449386Y-410109D01*
X-1457004D01*
X-1431612D02*
X-1436691Y-412648D01*
X-1441769Y-417726D01*
Y-422805D01*
X-1439230Y-425344D01*
X-1434151D01*
X-1431612Y-422805D01*
Y-420266D01*
X-1434151Y-417726D01*
X-1441769D01*
X-1426534Y-422805D02*
X-1423995Y-425344D01*
X-1418916D01*
X-1416377Y-422805D01*
Y-412648D01*
X-1418916Y-410109D01*
X-1423995D01*
X-1426534Y-412648D01*
Y-415187D01*
X-1423995Y-417726D01*
X-1416377D01*
X-1266504Y-410109D02*
Y-425344D01*
X-1258886D01*
X-1256347Y-422805D01*
Y-412648D01*
X-1258886Y-410109D01*
X-1266504D01*
X-1241112D02*
X-1246191Y-412648D01*
X-1251269Y-417726D01*
Y-422805D01*
X-1248730Y-425344D01*
X-1243651D01*
X-1241112Y-422805D01*
Y-420266D01*
X-1243651Y-417726D01*
X-1251269D01*
X-1236034Y-412648D02*
X-1233495Y-410109D01*
X-1228416D01*
X-1225877Y-412648D01*
Y-415187D01*
X-1228416Y-417726D01*
X-1225877Y-420266D01*
Y-422805D01*
X-1228416Y-425344D01*
X-1233495D01*
X-1236034Y-422805D01*
Y-420266D01*
X-1233495Y-417726D01*
X-1236034Y-415187D01*
Y-412648D01*
X-1233495Y-417726D02*
X-1228416D01*
X-1076004Y-410109D02*
Y-425344D01*
X-1068387D01*
X-1065847Y-422805D01*
Y-412648D01*
X-1068387Y-410109D01*
X-1076004D01*
X-1050612D02*
X-1055691Y-412648D01*
X-1060769Y-417726D01*
Y-422805D01*
X-1058230Y-425344D01*
X-1053151D01*
X-1050612Y-422805D01*
Y-420266D01*
X-1053151Y-417726D01*
X-1060769D01*
X-1045534Y-410109D02*
X-1035377D01*
Y-412648D01*
X-1045534Y-422805D01*
Y-425344D01*
X-885504Y-410109D02*
Y-425344D01*
X-877887D01*
X-875347Y-422805D01*
Y-412648D01*
X-877887Y-410109D01*
X-885504D01*
X-860112D02*
X-865191Y-412648D01*
X-870269Y-417726D01*
Y-422805D01*
X-867730Y-425344D01*
X-862651D01*
X-860112Y-422805D01*
Y-420266D01*
X-862651Y-417726D01*
X-870269D01*
X-844877Y-410109D02*
X-849956Y-412648D01*
X-855034Y-417726D01*
Y-422805D01*
X-852495Y-425344D01*
X-847416D01*
X-844877Y-422805D01*
Y-420266D01*
X-847416Y-417726D01*
X-855034D01*
X-695004Y-410109D02*
Y-425344D01*
X-687386D01*
X-684847Y-422805D01*
Y-412648D01*
X-687386Y-410109D01*
X-695004D01*
X-669612D02*
X-674691Y-412648D01*
X-679769Y-417726D01*
Y-422805D01*
X-677230Y-425344D01*
X-672151D01*
X-669612Y-422805D01*
Y-420266D01*
X-672151Y-417726D01*
X-679769D01*
X-654377Y-410109D02*
X-664534D01*
Y-417726D01*
X-659455Y-415187D01*
X-656916D01*
X-654377Y-417726D01*
Y-422805D01*
X-656916Y-425344D01*
X-661995D01*
X-664534Y-422805D01*
X-504504Y-410109D02*
Y-425344D01*
X-496886D01*
X-494347Y-422805D01*
Y-412648D01*
X-496886Y-410109D01*
X-504504D01*
X-479112D02*
X-484191Y-412648D01*
X-489269Y-417726D01*
Y-422805D01*
X-486730Y-425344D01*
X-481651D01*
X-479112Y-422805D01*
Y-420266D01*
X-481651Y-417726D01*
X-489269D01*
X-466416Y-425344D02*
Y-410109D01*
X-474034Y-417726D01*
X-463877D01*
X186122Y-410109D02*
Y-425344D01*
X193739D01*
X196279Y-422805D01*
Y-412648D01*
X193739Y-410109D01*
X186122D01*
X211514D02*
X206435Y-412648D01*
X201357Y-417726D01*
Y-422805D01*
X203896Y-425344D01*
X208975D01*
X211514Y-422805D01*
Y-420266D01*
X208975Y-417726D01*
X201357D01*
X216592Y-412648D02*
X219131Y-410109D01*
X224210D01*
X226749Y-412648D01*
Y-415187D01*
X224210Y-417726D01*
X221670D01*
X224210D01*
X226749Y-420266D01*
Y-422805D01*
X224210Y-425344D01*
X219131D01*
X216592Y-422805D01*
X900370Y-410109D02*
Y-425344D01*
X907988D01*
X910527Y-422805D01*
Y-412648D01*
X907988Y-410109D01*
X900370D01*
X925762D02*
X920683Y-412648D01*
X915605Y-417726D01*
Y-422805D01*
X918144Y-425344D01*
X923223D01*
X925762Y-422805D01*
Y-420266D01*
X923223Y-417726D01*
X915605D01*
X940997Y-425344D02*
X930840D01*
X940997Y-415187D01*
Y-412648D01*
X938458Y-410109D01*
X933379D01*
X930840Y-412648D01*
X1138622Y-410109D02*
Y-425344D01*
X1146239D01*
X1148779Y-422805D01*
Y-412648D01*
X1146239Y-410109D01*
X1138622D01*
X1164014D02*
X1158935Y-412648D01*
X1153857Y-417726D01*
Y-422805D01*
X1156396Y-425344D01*
X1161475D01*
X1164014Y-422805D01*
Y-420266D01*
X1161475Y-417726D01*
X1153857D01*
X1169092Y-425344D02*
X1174171D01*
X1171631D01*
Y-410109D01*
X1169092Y-412648D01*
X1376620Y-410109D02*
Y-425344D01*
X1384238D01*
X1386777Y-422805D01*
Y-412648D01*
X1384238Y-410109D01*
X1376620D01*
X1402012D02*
X1396933Y-412648D01*
X1391855Y-417726D01*
Y-422805D01*
X1394394Y-425344D01*
X1399473D01*
X1402012Y-422805D01*
Y-420266D01*
X1399473Y-417726D01*
X1391855D01*
X1407090Y-412648D02*
X1409629Y-410109D01*
X1414708D01*
X1417247Y-412648D01*
Y-422805D01*
X1414708Y-425344D01*
X1409629D01*
X1407090Y-422805D01*
Y-412648D01*
X-1457004Y-219609D02*
Y-234844D01*
X-1449386D01*
X-1446847Y-232305D01*
Y-222148D01*
X-1449386Y-219609D01*
X-1457004D01*
X-1431612D02*
X-1441769D01*
Y-227226D01*
X-1436691Y-224687D01*
X-1434151D01*
X-1431612Y-227226D01*
Y-232305D01*
X-1434151Y-234844D01*
X-1439230D01*
X-1441769Y-232305D01*
X-1426534D02*
X-1423995Y-234844D01*
X-1418916D01*
X-1416377Y-232305D01*
Y-222148D01*
X-1418916Y-219609D01*
X-1423995D01*
X-1426534Y-222148D01*
Y-224687D01*
X-1423995Y-227226D01*
X-1416377D01*
X-1004630Y-219609D02*
Y-234844D01*
X-997012D01*
X-994473Y-232305D01*
Y-222148D01*
X-997012Y-219609D01*
X-1004630D01*
X-979238D02*
X-989395D01*
Y-227226D01*
X-984317Y-224687D01*
X-981777D01*
X-979238Y-227226D01*
Y-232305D01*
X-981777Y-234844D01*
X-986856D01*
X-989395Y-232305D01*
X-974160Y-219609D02*
X-964003D01*
Y-222148D01*
X-974160Y-232305D01*
Y-234844D01*
X-742756Y-219609D02*
Y-234844D01*
X-735138D01*
X-732599Y-232305D01*
Y-222148D01*
X-735138Y-219609D01*
X-742756D01*
X-717364D02*
X-727521D01*
Y-227226D01*
X-722443Y-224687D01*
X-719903D01*
X-717364Y-227226D01*
Y-232305D01*
X-719903Y-234844D01*
X-724982D01*
X-727521Y-232305D01*
X-702129Y-219609D02*
X-707207Y-222148D01*
X-712286Y-227226D01*
Y-232305D01*
X-709747Y-234844D01*
X-704668D01*
X-702129Y-232305D01*
Y-229766D01*
X-704668Y-227226D01*
X-712286D01*
X-552256Y-219609D02*
Y-234844D01*
X-544638D01*
X-542099Y-232305D01*
Y-222148D01*
X-544638Y-219609D01*
X-552256D01*
X-526864D02*
X-537021D01*
Y-227226D01*
X-531943Y-224687D01*
X-529403D01*
X-526864Y-227226D01*
Y-232305D01*
X-529403Y-234844D01*
X-534482D01*
X-537021Y-232305D01*
X-511629Y-219609D02*
X-521786D01*
Y-227226D01*
X-516707Y-224687D01*
X-514168D01*
X-511629Y-227226D01*
Y-232305D01*
X-514168Y-234844D01*
X-519247D01*
X-521786Y-232305D01*
X-361756Y-219609D02*
Y-234844D01*
X-354138D01*
X-351599Y-232305D01*
Y-222148D01*
X-354138Y-219609D01*
X-361756D01*
X-336364D02*
X-346521D01*
Y-227226D01*
X-341443Y-224687D01*
X-338903D01*
X-336364Y-227226D01*
Y-232305D01*
X-338903Y-234844D01*
X-343982D01*
X-346521Y-232305D01*
X-323668Y-234844D02*
Y-219609D01*
X-331286Y-227226D01*
X-321129D01*
X-195313Y-228382D02*
Y-243617D01*
X-187696D01*
X-185157Y-241078D01*
Y-230922D01*
X-187696Y-228382D01*
X-195313D01*
X-169922D02*
X-180078D01*
Y-236000D01*
X-175000Y-233461D01*
X-172461D01*
X-169922Y-236000D01*
Y-241078D01*
X-172461Y-243617D01*
X-177539D01*
X-180078Y-241078D01*
X-164843Y-230922D02*
X-162304Y-228382D01*
X-157226D01*
X-154687Y-230922D01*
Y-233461D01*
X-157226Y-236000D01*
X-159765D01*
X-157226D01*
X-154687Y-238539D01*
Y-241078D01*
X-157226Y-243617D01*
X-162304D01*
X-164843Y-241078D01*
X19244Y-219609D02*
Y-234844D01*
X26862D01*
X29401Y-232305D01*
Y-222148D01*
X26862Y-219609D01*
X19244D01*
X44636D02*
X34479D01*
Y-227226D01*
X39557Y-224687D01*
X42097D01*
X44636Y-227226D01*
Y-232305D01*
X42097Y-234844D01*
X37018D01*
X34479Y-232305D01*
X59871Y-234844D02*
X49714D01*
X59871Y-224687D01*
Y-222148D01*
X57332Y-219609D01*
X52253D01*
X49714Y-222148D01*
X209744Y-219609D02*
Y-234844D01*
X217362D01*
X219901Y-232305D01*
Y-222148D01*
X217362Y-219609D01*
X209744D01*
X235136D02*
X224979D01*
Y-227226D01*
X230057Y-224687D01*
X232597D01*
X235136Y-227226D01*
Y-232305D01*
X232597Y-234844D01*
X227518D01*
X224979Y-232305D01*
X240214Y-234844D02*
X245292D01*
X242753D01*
Y-219609D01*
X240214Y-222148D01*
X400244Y-219609D02*
Y-234844D01*
X407862D01*
X410401Y-232305D01*
Y-222148D01*
X407862Y-219609D01*
X400244D01*
X425636D02*
X415479D01*
Y-227226D01*
X420557Y-224687D01*
X423097D01*
X425636Y-227226D01*
Y-232305D01*
X423097Y-234844D01*
X418018D01*
X415479Y-232305D01*
X430714Y-222148D02*
X433253Y-219609D01*
X438332D01*
X440871Y-222148D01*
Y-232305D01*
X438332Y-234844D01*
X433253D01*
X430714Y-232305D01*
Y-222148D01*
X590744Y-219609D02*
Y-234844D01*
X598362D01*
X600901Y-232305D01*
Y-222148D01*
X598362Y-219609D01*
X590744D01*
X613597Y-234844D02*
Y-219609D01*
X605979Y-227226D01*
X616136D01*
X621214Y-232305D02*
X623753Y-234844D01*
X628832D01*
X631371Y-232305D01*
Y-222148D01*
X628832Y-219609D01*
X623753D01*
X621214Y-222148D01*
Y-224687D01*
X623753Y-227226D01*
X631371D01*
X781244Y-219609D02*
Y-234844D01*
X788861D01*
X791401Y-232305D01*
Y-222148D01*
X788861Y-219609D01*
X781244D01*
X804097Y-234844D02*
Y-219609D01*
X796479Y-227226D01*
X806636D01*
X811714Y-222148D02*
X814253Y-219609D01*
X819332D01*
X821871Y-222148D01*
Y-224687D01*
X819332Y-227226D01*
X821871Y-229766D01*
Y-232305D01*
X819332Y-234844D01*
X814253D01*
X811714Y-232305D01*
Y-229766D01*
X814253Y-227226D01*
X811714Y-224687D01*
Y-222148D01*
X814253Y-227226D02*
X819332D01*
X971744Y-219609D02*
Y-234844D01*
X979361D01*
X981901Y-232305D01*
Y-222148D01*
X979361Y-219609D01*
X971744D01*
X994597Y-234844D02*
Y-219609D01*
X986979Y-227226D01*
X997136D01*
X1002214Y-219609D02*
X1012371D01*
Y-222148D01*
X1002214Y-232305D01*
Y-234844D01*
X1281370Y-219609D02*
Y-234844D01*
X1288987D01*
X1291527Y-232305D01*
Y-222148D01*
X1288987Y-219609D01*
X1281370D01*
X1304223Y-234844D02*
Y-219609D01*
X1296605Y-227226D01*
X1306762D01*
X1321997Y-219609D02*
X1316918Y-222148D01*
X1311840Y-227226D01*
Y-232305D01*
X1314379Y-234844D01*
X1319458D01*
X1321997Y-232305D01*
Y-229766D01*
X1319458Y-227226D01*
X1311840D01*
X-1457004Y-29109D02*
Y-44344D01*
X-1449386D01*
X-1446847Y-41805D01*
Y-31648D01*
X-1449386Y-29109D01*
X-1457004D01*
X-1434151Y-44344D02*
Y-29109D01*
X-1441769Y-36726D01*
X-1431612D01*
X-1416377Y-29109D02*
X-1426534D01*
Y-36726D01*
X-1421456Y-34187D01*
X-1418916D01*
X-1416377Y-36726D01*
Y-41805D01*
X-1418916Y-44344D01*
X-1423995D01*
X-1426534Y-41805D01*
X-1147378Y-29109D02*
Y-44344D01*
X-1139761D01*
X-1137221Y-41805D01*
Y-31648D01*
X-1139761Y-29109D01*
X-1147378D01*
X-1124525Y-44344D02*
Y-29109D01*
X-1132143Y-36726D01*
X-1121986D01*
X-1109290Y-44344D02*
Y-29109D01*
X-1116908Y-36726D01*
X-1106751D01*
X-838006Y-29109D02*
Y-44344D01*
X-830388D01*
X-827849Y-41805D01*
Y-31648D01*
X-830388Y-29109D01*
X-838006D01*
X-815153Y-44344D02*
Y-29109D01*
X-822771Y-36726D01*
X-812614D01*
X-807536Y-31648D02*
X-804997Y-29109D01*
X-799918D01*
X-797379Y-31648D01*
Y-34187D01*
X-799918Y-36726D01*
X-802458D01*
X-799918D01*
X-797379Y-39266D01*
Y-41805D01*
X-799918Y-44344D01*
X-804997D01*
X-807536Y-41805D01*
X-647506Y-29109D02*
Y-44344D01*
X-639888D01*
X-637349Y-41805D01*
Y-31648D01*
X-639888Y-29109D01*
X-647506D01*
X-624653Y-44344D02*
Y-29109D01*
X-632271Y-36726D01*
X-622114D01*
X-606879Y-44344D02*
X-617036D01*
X-606879Y-34187D01*
Y-31648D01*
X-609418Y-29109D01*
X-614497D01*
X-617036Y-31648D01*
X-457006Y-29109D02*
Y-44344D01*
X-449389D01*
X-446849Y-41805D01*
Y-31648D01*
X-449389Y-29109D01*
X-457006D01*
X-434153Y-44344D02*
Y-29109D01*
X-441771Y-36726D01*
X-431614D01*
X-426536Y-44344D02*
X-421457D01*
X-423997D01*
Y-29109D01*
X-426536Y-31648D01*
X-266506Y-29109D02*
Y-44344D01*
X-258888D01*
X-256349Y-41805D01*
Y-31648D01*
X-258888Y-29109D01*
X-266506D01*
X-243653Y-44344D02*
Y-29109D01*
X-251271Y-36726D01*
X-241114D01*
X-236036Y-31648D02*
X-233497Y-29109D01*
X-228418D01*
X-225879Y-31648D01*
Y-41805D01*
X-228418Y-44344D01*
X-233497D01*
X-236036Y-41805D01*
Y-31648D01*
X-76006Y-29109D02*
Y-44344D01*
X-68389D01*
X-65849Y-41805D01*
Y-31648D01*
X-68389Y-29109D01*
X-76006D01*
X-60771Y-31648D02*
X-58232Y-29109D01*
X-53153D01*
X-50614Y-31648D01*
Y-34187D01*
X-53153Y-36726D01*
X-55693D01*
X-53153D01*
X-50614Y-39266D01*
Y-41805D01*
X-53153Y-44344D01*
X-58232D01*
X-60771Y-41805D01*
X-45536D02*
X-42997Y-44344D01*
X-37918D01*
X-35379Y-41805D01*
Y-31648D01*
X-37918Y-29109D01*
X-42997D01*
X-45536Y-31648D01*
Y-34187D01*
X-42997Y-36726D01*
X-35379D01*
X114494Y-29109D02*
Y-44344D01*
X122112D01*
X124651Y-41805D01*
Y-31648D01*
X122112Y-29109D01*
X114494D01*
X129729Y-31648D02*
X132268Y-29109D01*
X137347D01*
X139886Y-31648D01*
Y-34187D01*
X137347Y-36726D01*
X134807D01*
X137347D01*
X139886Y-39266D01*
Y-41805D01*
X137347Y-44344D01*
X132268D01*
X129729Y-41805D01*
X144964Y-31648D02*
X147503Y-29109D01*
X152582D01*
X155121Y-31648D01*
Y-34187D01*
X152582Y-36726D01*
X155121Y-39266D01*
Y-41805D01*
X152582Y-44344D01*
X147503D01*
X144964Y-41805D01*
Y-39266D01*
X147503Y-36726D01*
X144964Y-34187D01*
Y-31648D01*
X147503Y-36726D02*
X152582D01*
X304994Y-29109D02*
Y-44344D01*
X312612D01*
X315151Y-41805D01*
Y-31648D01*
X312612Y-29109D01*
X304994D01*
X320229Y-31648D02*
X322768Y-29109D01*
X327847D01*
X330386Y-31648D01*
Y-34187D01*
X327847Y-36726D01*
X325307D01*
X327847D01*
X330386Y-39266D01*
Y-41805D01*
X327847Y-44344D01*
X322768D01*
X320229Y-41805D01*
X335464Y-29109D02*
X345621D01*
Y-31648D01*
X335464Y-41805D01*
Y-44344D01*
X495494Y-29109D02*
Y-44344D01*
X503111D01*
X505651Y-41805D01*
Y-31648D01*
X503111Y-29109D01*
X495494D01*
X510729Y-31648D02*
X513268Y-29109D01*
X518347D01*
X520886Y-31648D01*
Y-34187D01*
X518347Y-36726D01*
X515807D01*
X518347D01*
X520886Y-39266D01*
Y-41805D01*
X518347Y-44344D01*
X513268D01*
X510729Y-41805D01*
X536121Y-29109D02*
X531043Y-31648D01*
X525964Y-36726D01*
Y-41805D01*
X528503Y-44344D01*
X533582D01*
X536121Y-41805D01*
Y-39266D01*
X533582Y-36726D01*
X525964D01*
X685994Y-29109D02*
Y-44344D01*
X693612D01*
X696151Y-41805D01*
Y-31648D01*
X693612Y-29109D01*
X685994D01*
X701229Y-31648D02*
X703768Y-29109D01*
X708847D01*
X711386Y-31648D01*
Y-34187D01*
X708847Y-36726D01*
X706307D01*
X708847D01*
X711386Y-39266D01*
Y-41805D01*
X708847Y-44344D01*
X703768D01*
X701229Y-41805D01*
X726621Y-29109D02*
X716464D01*
Y-36726D01*
X721543Y-34187D01*
X724082D01*
X726621Y-36726D01*
Y-41805D01*
X724082Y-44344D01*
X719003D01*
X716464Y-41805D01*
X876494Y-29109D02*
Y-44344D01*
X884111D01*
X886651Y-41805D01*
Y-31648D01*
X884111Y-29109D01*
X876494D01*
X891729Y-31648D02*
X894268Y-29109D01*
X899347D01*
X901886Y-31648D01*
Y-34187D01*
X899347Y-36726D01*
X896807D01*
X899347D01*
X901886Y-39266D01*
Y-41805D01*
X899347Y-44344D01*
X894268D01*
X891729Y-41805D01*
X914582Y-44344D02*
Y-29109D01*
X906964Y-36726D01*
X917121D01*
X1066994Y-29109D02*
Y-44344D01*
X1074612D01*
X1077151Y-41805D01*
Y-31648D01*
X1074612Y-29109D01*
X1066994D01*
X1082229Y-31648D02*
X1084768Y-29109D01*
X1089847D01*
X1092386Y-31648D01*
Y-34187D01*
X1089847Y-36726D01*
X1087307D01*
X1089847D01*
X1092386Y-39266D01*
Y-41805D01*
X1089847Y-44344D01*
X1084768D01*
X1082229Y-41805D01*
X1097464Y-31648D02*
X1100003Y-29109D01*
X1105082D01*
X1107621Y-31648D01*
Y-34187D01*
X1105082Y-36726D01*
X1102542D01*
X1105082D01*
X1107621Y-39266D01*
Y-41805D01*
X1105082Y-44344D01*
X1100003D01*
X1097464Y-41805D01*
X1329122Y-29109D02*
Y-44344D01*
X1336740D01*
X1339279Y-41805D01*
Y-31648D01*
X1336740Y-29109D01*
X1329122D01*
X1344357Y-31648D02*
X1346896Y-29109D01*
X1351975D01*
X1354514Y-31648D01*
Y-34187D01*
X1351975Y-36726D01*
X1349435D01*
X1351975D01*
X1354514Y-39266D01*
Y-41805D01*
X1351975Y-44344D01*
X1346896D01*
X1344357Y-41805D01*
X1369749Y-44344D02*
X1359592D01*
X1369749Y-34187D01*
Y-31648D01*
X1367210Y-29109D01*
X1362131D01*
X1359592Y-31648D01*
X-1457004Y161391D02*
Y146156D01*
X-1449386D01*
X-1446847Y148695D01*
Y158852D01*
X-1449386Y161391D01*
X-1457004D01*
X-1441769Y158852D02*
X-1439230Y161391D01*
X-1434151D01*
X-1431612Y158852D01*
Y156313D01*
X-1434151Y153774D01*
X-1436691D01*
X-1434151D01*
X-1431612Y151234D01*
Y148695D01*
X-1434151Y146156D01*
X-1439230D01*
X-1441769Y148695D01*
X-1426534Y146156D02*
X-1421456D01*
X-1423995D01*
Y161391D01*
X-1426534Y158852D01*
X-1219006Y161391D02*
Y146156D01*
X-1211388D01*
X-1208849Y148695D01*
Y158852D01*
X-1211388Y161391D01*
X-1219006D01*
X-1203771Y158852D02*
X-1201232Y161391D01*
X-1196153D01*
X-1193614Y158852D01*
Y156313D01*
X-1196153Y153774D01*
X-1198693D01*
X-1196153D01*
X-1193614Y151234D01*
Y148695D01*
X-1196153Y146156D01*
X-1201232D01*
X-1203771Y148695D01*
X-1188536Y158852D02*
X-1185997Y161391D01*
X-1180918D01*
X-1178379Y158852D01*
Y148695D01*
X-1180918Y146156D01*
X-1185997D01*
X-1188536Y148695D01*
Y158852D01*
X-980754Y161391D02*
Y146156D01*
X-973137D01*
X-970597Y148695D01*
Y158852D01*
X-973137Y161391D01*
X-980754D01*
X-955362Y146156D02*
X-965519D01*
X-955362Y156313D01*
Y158852D01*
X-957901Y161391D01*
X-962980D01*
X-965519Y158852D01*
X-950284Y148695D02*
X-947745Y146156D01*
X-942666D01*
X-940127Y148695D01*
Y158852D01*
X-942666Y161391D01*
X-947745D01*
X-950284Y158852D01*
Y156313D01*
X-947745Y153774D01*
X-940127D01*
X-790254Y161391D02*
Y146156D01*
X-782636D01*
X-780097Y148695D01*
Y158852D01*
X-782636Y161391D01*
X-790254D01*
X-764862Y146156D02*
X-775019D01*
X-764862Y156313D01*
Y158852D01*
X-767401Y161391D01*
X-772480D01*
X-775019Y158852D01*
X-759784D02*
X-757245Y161391D01*
X-752166D01*
X-749627Y158852D01*
Y156313D01*
X-752166Y153774D01*
X-749627Y151234D01*
Y148695D01*
X-752166Y146156D01*
X-757245D01*
X-759784Y148695D01*
Y151234D01*
X-757245Y153774D01*
X-759784Y156313D01*
Y158852D01*
X-757245Y153774D02*
X-752166D01*
X-599754Y161391D02*
Y146156D01*
X-592136D01*
X-589597Y148695D01*
Y158852D01*
X-592136Y161391D01*
X-599754D01*
X-574362Y146156D02*
X-584519D01*
X-574362Y156313D01*
Y158852D01*
X-576901Y161391D01*
X-581980D01*
X-584519Y158852D01*
X-569284Y161391D02*
X-559127D01*
Y158852D01*
X-569284Y148695D01*
Y146156D01*
X-409254Y161391D02*
Y146156D01*
X-401637D01*
X-399097Y148695D01*
Y158852D01*
X-401637Y161391D01*
X-409254D01*
X-383862Y146156D02*
X-394019D01*
X-383862Y156313D01*
Y158852D01*
X-386401Y161391D01*
X-391480D01*
X-394019Y158852D01*
X-368627Y161391D02*
X-373705Y158852D01*
X-378784Y153774D01*
Y148695D01*
X-376245Y146156D01*
X-371166D01*
X-368627Y148695D01*
Y151234D01*
X-371166Y153774D01*
X-378784D01*
X-218754Y161391D02*
Y146156D01*
X-211136D01*
X-208597Y148695D01*
Y158852D01*
X-211136Y161391D01*
X-218754D01*
X-193362Y146156D02*
X-203519D01*
X-193362Y156313D01*
Y158852D01*
X-195901Y161391D01*
X-200980D01*
X-203519Y158852D01*
X-178127Y161391D02*
X-188284D01*
Y153774D01*
X-183206Y156313D01*
X-180666D01*
X-178127Y153774D01*
Y148695D01*
X-180666Y146156D01*
X-185745D01*
X-188284Y148695D01*
X-28254Y161391D02*
Y146156D01*
X-20636D01*
X-18097Y148695D01*
Y158852D01*
X-20636Y161391D01*
X-28254D01*
X-2862Y146156D02*
X-13019D01*
X-2862Y156313D01*
Y158852D01*
X-5401Y161391D01*
X-10480D01*
X-13019Y158852D01*
X9834Y146156D02*
Y161391D01*
X2216Y153774D01*
X12373D01*
X162246Y161391D02*
Y146156D01*
X169863D01*
X172403Y148695D01*
Y158852D01*
X169863Y161391D01*
X162246D01*
X187638Y146156D02*
X177481D01*
X187638Y156313D01*
Y158852D01*
X185099Y161391D01*
X180020D01*
X177481Y158852D01*
X192716D02*
X195255Y161391D01*
X200334D01*
X202873Y158852D01*
Y156313D01*
X200334Y153774D01*
X197794D01*
X200334D01*
X202873Y151234D01*
Y148695D01*
X200334Y146156D01*
X195255D01*
X192716Y148695D01*
X352746Y161391D02*
Y146156D01*
X360364D01*
X362903Y148695D01*
Y158852D01*
X360364Y161391D01*
X352746D01*
X378138Y146156D02*
X367981D01*
X378138Y156313D01*
Y158852D01*
X375599Y161391D01*
X370520D01*
X367981Y158852D01*
X393373Y146156D02*
X383216D01*
X393373Y156313D01*
Y158852D01*
X390834Y161391D01*
X385755D01*
X383216Y158852D01*
X543246Y161391D02*
Y146156D01*
X550863D01*
X553403Y148695D01*
Y158852D01*
X550863Y161391D01*
X543246D01*
X568638Y146156D02*
X558481D01*
X568638Y156313D01*
Y158852D01*
X566099Y161391D01*
X561020D01*
X558481Y158852D01*
X573716Y146156D02*
X578795D01*
X576255D01*
Y161391D01*
X573716Y158852D01*
X733746Y161391D02*
Y146156D01*
X741364D01*
X743903Y148695D01*
Y158852D01*
X741364Y161391D01*
X733746D01*
X759138Y146156D02*
X748981D01*
X759138Y156313D01*
Y158852D01*
X756599Y161391D01*
X751520D01*
X748981Y158852D01*
X764216D02*
X766755Y161391D01*
X771834D01*
X774373Y158852D01*
Y148695D01*
X771834Y146156D01*
X766755D01*
X764216Y148695D01*
Y158852D01*
X924246Y161391D02*
Y146156D01*
X931863D01*
X934403Y148695D01*
Y158852D01*
X931863Y161391D01*
X924246D01*
X939481Y146156D02*
X944559D01*
X942020D01*
Y161391D01*
X939481Y158852D01*
X952177Y148695D02*
X954716Y146156D01*
X959794D01*
X962334Y148695D01*
Y158852D01*
X959794Y161391D01*
X954716D01*
X952177Y158852D01*
Y156313D01*
X954716Y153774D01*
X962334D01*
X1114746Y161391D02*
Y146156D01*
X1122364D01*
X1124903Y148695D01*
Y158852D01*
X1122364Y161391D01*
X1114746D01*
X1129981Y146156D02*
X1135059D01*
X1132520D01*
Y161391D01*
X1129981Y158852D01*
X1142677D02*
X1145216Y161391D01*
X1150294D01*
X1152834Y158852D01*
Y156313D01*
X1150294Y153774D01*
X1152834Y151234D01*
Y148695D01*
X1150294Y146156D01*
X1145216D01*
X1142677Y148695D01*
Y151234D01*
X1145216Y153774D01*
X1142677Y156313D01*
Y158852D01*
X1145216Y153774D02*
X1150294D01*
X1352744Y161391D02*
Y146156D01*
X1360361D01*
X1362901Y148695D01*
Y158852D01*
X1360361Y161391D01*
X1352744D01*
X1367979Y146156D02*
X1373057D01*
X1370518D01*
Y161391D01*
X1367979Y158852D01*
X1380675Y161391D02*
X1390832D01*
Y158852D01*
X1380675Y148695D01*
Y146156D01*
X-1171254Y351891D02*
Y336656D01*
X-1163636D01*
X-1161097Y339195D01*
Y349352D01*
X-1163636Y351891D01*
X-1171254D01*
X-1156019Y336656D02*
X-1150941D01*
X-1153480D01*
Y351891D01*
X-1156019Y349352D01*
X-1133166Y351891D02*
X-1138245Y349352D01*
X-1143323Y344274D01*
Y339195D01*
X-1140784Y336656D01*
X-1135705D01*
X-1133166Y339195D01*
Y341734D01*
X-1135705Y344274D01*
X-1143323D01*
X-885504Y351891D02*
Y336656D01*
X-877887D01*
X-875347Y339195D01*
Y349352D01*
X-877887Y351891D01*
X-885504D01*
X-870269Y336656D02*
X-865191D01*
X-867730D01*
Y351891D01*
X-870269Y349352D01*
X-847416Y351891D02*
X-857573D01*
Y344274D01*
X-852495Y346813D01*
X-849956D01*
X-847416Y344274D01*
Y339195D01*
X-849956Y336656D01*
X-855034D01*
X-857573Y339195D01*
X-695004Y351891D02*
Y336656D01*
X-687386D01*
X-684847Y339195D01*
Y349352D01*
X-687386Y351891D01*
X-695004D01*
X-679769Y336656D02*
X-674691D01*
X-677230D01*
Y351891D01*
X-679769Y349352D01*
X-659455Y336656D02*
Y351891D01*
X-667073Y344274D01*
X-656916D01*
X-504504Y351891D02*
Y336656D01*
X-496886D01*
X-494347Y339195D01*
Y349352D01*
X-496886Y351891D01*
X-504504D01*
X-489269Y336656D02*
X-484191D01*
X-486730D01*
Y351891D01*
X-489269Y349352D01*
X-476573D02*
X-474034Y351891D01*
X-468955D01*
X-466416Y349352D01*
Y346813D01*
X-468955Y344274D01*
X-471495D01*
X-468955D01*
X-466416Y341734D01*
Y339195D01*
X-468955Y336656D01*
X-474034D01*
X-476573Y339195D01*
X-314004Y351891D02*
Y336656D01*
X-306387D01*
X-303847Y339195D01*
Y349352D01*
X-306387Y351891D01*
X-314004D01*
X-298769Y336656D02*
X-293691D01*
X-296230D01*
Y351891D01*
X-298769Y349352D01*
X-275916Y336656D02*
X-286073D01*
X-275916Y346813D01*
Y349352D01*
X-278456Y351891D01*
X-283534D01*
X-286073Y349352D01*
X-123504Y351891D02*
Y336656D01*
X-115886D01*
X-113347Y339195D01*
Y349352D01*
X-115886Y351891D01*
X-123504D01*
X-108269Y336656D02*
X-103191D01*
X-105730D01*
Y351891D01*
X-108269Y349352D01*
X-95573Y336656D02*
X-90495D01*
X-93034D01*
Y351891D01*
X-95573Y349352D01*
X66996Y351891D02*
Y336656D01*
X74613D01*
X77153Y339195D01*
Y349352D01*
X74613Y351891D01*
X66996D01*
X82231Y336656D02*
X87309D01*
X84770D01*
Y351891D01*
X82231Y349352D01*
X94927D02*
X97466Y351891D01*
X102544D01*
X105084Y349352D01*
Y339195D01*
X102544Y336656D01*
X97466D01*
X94927Y339195D01*
Y349352D01*
X257496Y351891D02*
Y336656D01*
X265114D01*
X267653Y339195D01*
Y349352D01*
X265114Y351891D01*
X257496D01*
X272731Y339195D02*
X275270Y336656D01*
X280349D01*
X282888Y339195D01*
Y349352D01*
X280349Y351891D01*
X275270D01*
X272731Y349352D01*
Y346813D01*
X275270Y344274D01*
X282888D01*
X447996Y351891D02*
Y336656D01*
X455614D01*
X458153Y339195D01*
Y349352D01*
X455614Y351891D01*
X447996D01*
X463231Y349352D02*
X465770Y351891D01*
X470849D01*
X473388Y349352D01*
Y346813D01*
X470849Y344274D01*
X473388Y341734D01*
Y339195D01*
X470849Y336656D01*
X465770D01*
X463231Y339195D01*
Y341734D01*
X465770Y344274D01*
X463231Y346813D01*
Y349352D01*
X465770Y344274D02*
X470849D01*
X638496Y351891D02*
Y336656D01*
X646114D01*
X648653Y339195D01*
Y349352D01*
X646114Y351891D01*
X638496D01*
X653731D02*
X663888D01*
Y349352D01*
X653731Y339195D01*
Y336656D01*
X828996Y351891D02*
Y336656D01*
X836613D01*
X839153Y339195D01*
Y349352D01*
X836613Y351891D01*
X828996D01*
X854388D02*
X849309Y349352D01*
X844231Y344274D01*
Y339195D01*
X846770Y336656D01*
X851849D01*
X854388Y339195D01*
Y341734D01*
X851849Y344274D01*
X844231D01*
X1019496Y351891D02*
Y336656D01*
X1027113D01*
X1029653Y339195D01*
Y349352D01*
X1027113Y351891D01*
X1019496D01*
X1044888D02*
X1034731D01*
Y344274D01*
X1039809Y346813D01*
X1042349D01*
X1044888Y344274D01*
Y339195D01*
X1042349Y336656D01*
X1037270D01*
X1034731Y339195D01*
X1209996Y351891D02*
Y336656D01*
X1217614D01*
X1220153Y339195D01*
Y349352D01*
X1217614Y351891D01*
X1209996D01*
X1232849Y336656D02*
Y351891D01*
X1225231Y344274D01*
X1235388D01*
X1400496Y351891D02*
Y336656D01*
X1408114D01*
X1410653Y339195D01*
Y349352D01*
X1408114Y351891D01*
X1400496D01*
X1415731Y349352D02*
X1418270Y351891D01*
X1423349D01*
X1425888Y349352D01*
Y346813D01*
X1423349Y344274D01*
X1420809D01*
X1423349D01*
X1425888Y341734D01*
Y339195D01*
X1423349Y336656D01*
X1418270D01*
X1415731Y339195D01*
X-1440240Y433679D02*
Y418444D01*
X-1432623D01*
X-1430083Y420983D01*
Y431140D01*
X-1432623Y433679D01*
X-1440240D01*
X-1414848Y418444D02*
X-1425005D01*
X-1414848Y428601D01*
Y431140D01*
X-1417387Y433679D01*
X-1422466D01*
X-1425005Y431140D01*
X-128157Y-461382D02*
Y-476618D01*
X-120539D01*
X-118000Y-474078D01*
Y-463922D01*
X-120539Y-461382D01*
X-128157D01*
X-112922Y-476618D02*
X-107843D01*
X-110382D01*
Y-461382D01*
X-112922Y-463922D01*
X-1486725Y354940D02*
X-1489265Y357479D01*
X-1494343D01*
X-1496882Y354940D01*
Y344783D01*
X-1494343Y342244D01*
X-1489265D01*
X-1486725Y344783D01*
X-1471490Y342244D02*
X-1481647D01*
X-1471490Y352401D01*
Y354940D01*
X-1474029Y357479D01*
X-1479108D01*
X-1481647Y354940D01*
X-1466412Y342244D02*
X-1461333D01*
X-1463873D01*
Y357479D01*
X-1466412Y354940D01*
X-1376743D02*
X-1379283Y357479D01*
X-1384361D01*
X-1386900Y354940D01*
Y344783D01*
X-1384361Y342244D01*
X-1379283D01*
X-1376743Y344783D01*
X-1361508Y342244D02*
X-1371665D01*
X-1361508Y352401D01*
Y354940D01*
X-1364047Y357479D01*
X-1369126D01*
X-1371665Y354940D01*
X-1356430D02*
X-1353891Y357479D01*
X-1348812D01*
X-1346273Y354940D01*
Y344783D01*
X-1348812Y342244D01*
X-1353891D01*
X-1356430Y344783D01*
Y354940D01*
X102113Y-451922D02*
X99574Y-449383D01*
X94495D01*
X91956Y-451922D01*
Y-462078D01*
X94495Y-464618D01*
X99574D01*
X102113Y-462078D01*
X107191Y-464618D02*
X112270D01*
X109730D01*
Y-449383D01*
X107191Y-451922D01*
X119887Y-462078D02*
X122426Y-464618D01*
X127505D01*
X130044Y-462078D01*
Y-451922D01*
X127505Y-449383D01*
X122426D01*
X119887Y-451922D01*
Y-454461D01*
X122426Y-457000D01*
X130044D01*
X-128016Y-233050D02*
X-130555Y-230511D01*
X-135633D01*
X-138173Y-233050D01*
Y-243207D01*
X-135633Y-245746D01*
X-130555D01*
X-128016Y-243207D01*
X-122938Y-245746D02*
X-117859D01*
X-120399D01*
Y-230511D01*
X-122938Y-233050D01*
X-110242D02*
X-107703Y-230511D01*
X-102624D01*
X-100085Y-233050D01*
Y-235590D01*
X-102624Y-238129D01*
X-100085Y-240668D01*
Y-243207D01*
X-102624Y-245746D01*
X-107703D01*
X-110242Y-243207D01*
Y-240668D01*
X-107703Y-238129D01*
X-110242Y-235590D01*
Y-233050D01*
X-107703Y-238129D02*
X-102624D01*
X-3887Y-206922D02*
X-6426Y-204382D01*
X-11505D01*
X-14044Y-206922D01*
Y-217078D01*
X-11505Y-219618D01*
X-6426D01*
X-3887Y-217078D01*
X1191Y-219618D02*
X6270D01*
X3730D01*
Y-204382D01*
X1191Y-206922D01*
X13887Y-204382D02*
X24044D01*
Y-206922D01*
X13887Y-217078D01*
Y-219618D01*
X-5887Y-438922D02*
X-8426Y-436382D01*
X-13505D01*
X-16044Y-438922D01*
Y-449078D01*
X-13505Y-451618D01*
X-8426D01*
X-5887Y-449078D01*
X-809Y-451618D02*
X4270D01*
X1730D01*
Y-436382D01*
X-809Y-438922D01*
X22044Y-436382D02*
X16966Y-438922D01*
X11887Y-444000D01*
Y-449078D01*
X14426Y-451618D01*
X19505D01*
X22044Y-449078D01*
Y-446539D01*
X19505Y-444000D01*
X11887D01*
X-16887Y-414922D02*
X-19426Y-412383D01*
X-24505D01*
X-27044Y-414922D01*
Y-425078D01*
X-24505Y-427617D01*
X-19426D01*
X-16887Y-425078D01*
X-11809Y-427617D02*
X-6730D01*
X-9270D01*
Y-412383D01*
X-11809Y-414922D01*
X11044Y-412383D02*
X887D01*
Y-420000D01*
X5965Y-417461D01*
X8505D01*
X11044Y-420000D01*
Y-425078D01*
X8505Y-427617D01*
X3426D01*
X887Y-425078D01*
X14113Y-275922D02*
X11574Y-273382D01*
X6495D01*
X3956Y-275922D01*
Y-286078D01*
X6495Y-288617D01*
X11574D01*
X14113Y-286078D01*
X19191Y-288617D02*
X24270D01*
X21730D01*
Y-273382D01*
X19191Y-275922D01*
X39505Y-288617D02*
Y-273382D01*
X31887Y-281000D01*
X42044D01*
X22556Y-397461D02*
X21287Y-396191D01*
X18748D01*
X17478Y-397461D01*
Y-402539D01*
X18748Y-403809D01*
X21287D01*
X22556Y-402539D01*
X25096Y-403809D02*
X27635D01*
X26365D01*
Y-396191D01*
X25096Y-397461D01*
X31444D02*
X32713Y-396191D01*
X35252D01*
X36522Y-397461D01*
Y-398730D01*
X35252Y-400000D01*
X33983D01*
X35252D01*
X36522Y-401270D01*
Y-402539D01*
X35252Y-403809D01*
X32713D01*
X31444Y-402539D01*
X-78444Y-286461D02*
X-79713Y-285191D01*
X-82252D01*
X-83522Y-286461D01*
Y-291539D01*
X-82252Y-292809D01*
X-79713D01*
X-78444Y-291539D01*
X-75904Y-292809D02*
X-73365D01*
X-74635D01*
Y-285191D01*
X-75904Y-286461D01*
X-64478Y-292809D02*
X-69556D01*
X-64478Y-287730D01*
Y-286461D01*
X-65748Y-285191D01*
X-68287D01*
X-69556Y-286461D01*
X-117348Y-391922D02*
X-119887Y-389383D01*
X-124965D01*
X-127505Y-391922D01*
Y-402078D01*
X-124965Y-404618D01*
X-119887D01*
X-117348Y-402078D01*
X-112270Y-404618D02*
X-107191D01*
X-109730D01*
Y-389383D01*
X-112270Y-391922D01*
X-99574Y-404618D02*
X-94495D01*
X-97035D01*
Y-389383D01*
X-99574Y-391922D01*
X-32094Y-392921D02*
X-33363Y-391652D01*
X-35902D01*
X-37172Y-392921D01*
Y-397999D01*
X-35902Y-399269D01*
X-33363D01*
X-32094Y-397999D01*
X-29554Y-399269D02*
X-27015D01*
X-28285D01*
Y-391652D01*
X-29554Y-392921D01*
X-23206D02*
X-21937Y-391652D01*
X-19398D01*
X-18128Y-392921D01*
Y-397999D01*
X-19398Y-399269D01*
X-21937D01*
X-23206Y-397999D01*
Y-392921D01*
X-119539Y-351922D02*
X-122078Y-349383D01*
X-127157D01*
X-129696Y-351922D01*
Y-362078D01*
X-127157Y-364618D01*
X-122078D01*
X-119539Y-362078D01*
X-114461D02*
X-111922Y-364618D01*
X-106843D01*
X-104304Y-362078D01*
Y-351922D01*
X-106843Y-349383D01*
X-111922D01*
X-114461Y-351922D01*
Y-354461D01*
X-111922Y-357000D01*
X-104304D01*
X-937323Y308712D02*
X-939863Y311251D01*
X-944941D01*
X-947480Y308712D01*
Y298555D01*
X-944941Y296016D01*
X-939863D01*
X-937323Y298555D01*
X-932245Y308712D02*
X-929706Y311251D01*
X-924627D01*
X-922088Y308712D01*
Y306173D01*
X-924627Y303634D01*
X-922088Y301094D01*
Y298555D01*
X-924627Y296016D01*
X-929706D01*
X-932245Y298555D01*
Y301094D01*
X-929706Y303634D01*
X-932245Y306173D01*
Y308712D01*
X-929706Y303634D02*
X-924627D01*
X-980249Y312268D02*
X-982788Y314807D01*
X-987867D01*
X-990406Y312268D01*
Y302111D01*
X-987867Y299572D01*
X-982788D01*
X-980249Y302111D01*
X-975171Y314807D02*
X-965014D01*
Y312268D01*
X-975171Y302111D01*
Y299572D01*
X-1022413Y399390D02*
X-1024952Y401929D01*
X-1030031D01*
X-1032570Y399390D01*
Y389233D01*
X-1030031Y386694D01*
X-1024952D01*
X-1022413Y389233D01*
X-1007178Y401929D02*
X-1012257Y399390D01*
X-1017335Y394312D01*
Y389233D01*
X-1014796Y386694D01*
X-1009717D01*
X-1007178Y389233D01*
Y391772D01*
X-1009717Y394312D01*
X-1017335D01*
X-9539Y-300922D02*
X-12078Y-298382D01*
X-17157D01*
X-19696Y-300922D01*
Y-311078D01*
X-17157Y-313617D01*
X-12078D01*
X-9539Y-311078D01*
X5696Y-298382D02*
X-4461D01*
Y-306000D01*
X617Y-303461D01*
X3157D01*
X5696Y-306000D01*
Y-311078D01*
X3157Y-313617D01*
X-1922D01*
X-4461Y-311078D01*
X-91539Y-432922D02*
X-94078Y-430382D01*
X-99157D01*
X-101696Y-432922D01*
Y-443078D01*
X-99157Y-445617D01*
X-94078D01*
X-91539Y-443078D01*
X-78843Y-445617D02*
Y-430382D01*
X-86461Y-438000D01*
X-76304D01*
X15730Y-365461D02*
X14461Y-364191D01*
X11922D01*
X10652Y-365461D01*
Y-370539D01*
X11922Y-371809D01*
X14461D01*
X15730Y-370539D01*
X18270Y-365461D02*
X19539Y-364191D01*
X22078D01*
X23348Y-365461D01*
Y-366730D01*
X22078Y-368000D01*
X20809D01*
X22078D01*
X23348Y-369270D01*
Y-370539D01*
X22078Y-371809D01*
X19539D01*
X18270Y-370539D01*
X-104461Y-319461D02*
X-105730Y-318191D01*
X-108270D01*
X-109539Y-319461D01*
Y-324539D01*
X-108270Y-325809D01*
X-105730D01*
X-104461Y-324539D01*
X-96843Y-325809D02*
X-101922D01*
X-96843Y-320730D01*
Y-319461D01*
X-98113Y-318191D01*
X-100652D01*
X-101922Y-319461D01*
X-93000Y-411922D02*
X-95539Y-409383D01*
X-100618D01*
X-103157Y-411922D01*
Y-422078D01*
X-100618Y-424618D01*
X-95539D01*
X-93000Y-422078D01*
X-87922Y-424618D02*
X-82843D01*
X-85382D01*
Y-409383D01*
X-87922Y-411922D01*
X41850Y-301650D02*
X52007Y-311807D01*
X41850D02*
X52007Y-301650D01*
X41850Y-306728D02*
X52007D01*
X46928Y-311807D02*
Y-301650D01*
D13*
X87000Y-352500D02*
G03*
X87000Y-352500I-3000J0D01*
G01*
D14*
X-99279Y-338640D02*
X-95885Y-335246D01*
X-49782Y-388137D02*
X-46388Y-384743D01*
X-53176Y-292537D02*
X-49782Y-289142D01*
X-3679Y-342034D02*
X-284Y-338640D01*
X-99279D02*
X-95885Y-342034D01*
X-53176Y-384743D02*
X-49782Y-388137D01*
Y-289142D02*
X-46388Y-292537D01*
X-3679Y-335246D02*
X-284Y-338640D01*
M02*
